<svg id="Layer_1" data-name="Layer 1" xmlns="http://www.w3.org/2000/svg" xmlns:xlink="http://www.w3.org/1999/xlink" viewBox="0 0 352.81 274.79"><defs><linearGradient id="linear-gradient" x1="180.06" y1="100.7" x2="95.59" y2="103.51" gradientUnits="userSpaceOnUse"><stop offset="0.01"/><stop offset="0.13" stop-opacity="0.69"/><stop offset="1" stop-opacity="0"/></linearGradient><linearGradient id="linear-gradient-2" x1="231.1" y1="224.26" x2="136.21" y2="108.54" xlink:href="#linear-gradient"/><linearGradient id="linear-gradient-3" x1="772.69" y1="-208.15" x2="798.03" y2="-285.86" gradientTransform="matrix(0.77, -0.44, 0.48, 0.85, -226.99, 679.53)" xlink:href="#linear-gradient"/><linearGradient id="linear-gradient-4" x1="730.83" y1="-156.29" x2="811.36" y2="-285.25" gradientTransform="matrix(0.77, -0.44, 0.48, 0.85, -226.99, 679.53)" xlink:href="#linear-gradient"/><linearGradient id="linear-gradient-5" x1="748.22" y1="-241.87" x2="767.5" y2="-269.47" gradientTransform="matrix(0.77, -0.44, 0.48, 0.85, -226.99, 679.53)" xlink:href="#linear-gradient"/><linearGradient id="linear-gradient-6" x1="825.28" y1="-165.59" x2="794.31" y2="-228.1" gradientTransform="matrix(0.77, -0.44, 0.48, 0.85, -226.99, 679.53)" xlink:href="#linear-gradient"/><linearGradient id="linear-gradient-7" x1="795.62" y1="-250.7" x2="821.97" y2="-250.7" gradientTransform="matrix(0.77, -0.44, 0.48, 0.85, -226.99, 679.53)" xlink:href="#linear-gradient"/><linearGradient id="linear-gradient-8" x1="769.33" y1="-246.93" x2="802.61" y2="-246.93" gradientTransform="matrix(0.77, -0.44, 0.48, 0.85, -226.99, 679.53)" xlink:href="#linear-gradient"/><linearGradient id="linear-gradient-9" x1="722.18" y1="-253.38" x2="770.61" y2="-286.79" gradientTransform="matrix(0.77, -0.44, 0.48, 0.85, -226.99, 679.53)" xlink:href="#linear-gradient"/><linearGradient id="linear-gradient-10" x1="764.55" y1="-259.31" x2="792.81" y2="-259.31" gradientTransform="matrix(0.77, -0.44, 0.48, 0.85, -226.99, 679.53)" xlink:href="#linear-gradient"/><linearGradient id="linear-gradient-11" x1="215.66" y1="152.92" x2="268.76" y2="152.92" xlink:href="#linear-gradient"/><linearGradient id="linear-gradient-12" x1="284.85" y1="43.12" x2="321.78" y2="46.32" gradientTransform="translate(-144.82 185.72) rotate(-8.95)" xlink:href="#linear-gradient"/><linearGradient id="linear-gradient-13" x1="296.9" y1="47.6" x2="375.65" y2="47.6" gradientTransform="translate(-144.82 185.72) rotate(-8.95)" xlink:href="#linear-gradient"/><linearGradient id="linear-gradient-14" x1="297.05" y1="39.79" x2="396.48" y2="39.79" gradientTransform="translate(-144.82 185.72) rotate(-8.95)" xlink:href="#linear-gradient"/><linearGradient id="linear-gradient-15" x1="348.46" y1="27.82" x2="342.02" y2="65.85" gradientTransform="translate(-144.82 185.72) rotate(-8.95)" gradientUnits="userSpaceOnUse"><stop offset="0.01" stop-color="#fff"/><stop offset="0.13" stop-color="#fff" stop-opacity="0.69"/><stop offset="1" stop-color="#fff" stop-opacity="0"/></linearGradient><linearGradient id="linear-gradient-16" x1="357.41" y1="36.89" x2="391.07" y2="36.89" gradientTransform="translate(-144.48 136.89) rotate(-1.51)" xlink:href="#linear-gradient"/><linearGradient id="linear-gradient-17" x1="357.35" y1="34.26" x2="391.01" y2="34.26" gradientTransform="translate(-144.82 136.93) rotate(-1.51)" xlink:href="#linear-gradient"/><linearGradient id="linear-gradient-18" x1="321.79" y1="34.14" x2="355.29" y2="34.14" gradientTransform="translate(-145.15 178.59) rotate(-7.75)" xlink:href="#linear-gradient"/><linearGradient id="linear-gradient-19" x1="343.49" y1="53.71" x2="351.54" y2="5.25" xlink:href="#linear-gradient-15"/><linearGradient id="linear-gradient-20" x1="353.31" y1="-18" x2="345.35" y2="24.72" gradientTransform="translate(-144.82 185.72) rotate(-8.95)" xlink:href="#linear-gradient"/><linearGradient id="linear-gradient-21" x1="358.57" y1="-67.81" x2="341.29" y2="24.98" gradientTransform="translate(-144.82 185.72) rotate(-8.95)" xlink:href="#linear-gradient"/><linearGradient id="linear-gradient-22" x1="329.8" y1="-16.72" x2="334.13" y2="-16.72" xlink:href="#linear-gradient-15"/><linearGradient id="linear-gradient-23" x1="319.01" y1="-12.37" x2="327.57" y2="-12.37" xlink:href="#linear-gradient-15"/><linearGradient id="linear-gradient-24" x1="329.9" y1="-9.39" x2="338.31" y2="-9.39" xlink:href="#linear-gradient-15"/><linearGradient id="linear-gradient-25" x1="342.24" y1="-13.76" x2="348.27" y2="-13.76" xlink:href="#linear-gradient-15"/><linearGradient id="linear-gradient-26" x1="352.42" y1="-12.4" x2="354.66" y2="-12.4" xlink:href="#linear-gradient-15"/><linearGradient id="linear-gradient-27" x1="359.86" y1="-7.98" x2="364.02" y2="-7.98" xlink:href="#linear-gradient-15"/><linearGradient id="linear-gradient-28" x1="340.45" y1="-18.32" x2="343.78" y2="-18.32" xlink:href="#linear-gradient-15"/><linearGradient id="linear-gradient-29" x1="363.72" y1="-13.7" x2="369.2" y2="-13.7" xlink:href="#linear-gradient-15"/><linearGradient id="linear-gradient-30" x1="360.97" y1="-1.75" x2="368.22" y2="-1.75" xlink:href="#linear-gradient-15"/><linearGradient id="linear-gradient-31" x1="345.63" y1="-5.55" x2="352.9" y2="-5.55" xlink:href="#linear-gradient-15"/><linearGradient id="linear-gradient-32" x1="371.25" y1="-6.51" x2="376.4" y2="-6.51" xlink:href="#linear-gradient-15"/><linearGradient id="linear-gradient-33" x1="380.43" y1="-6.65" x2="382.06" y2="-6.65" xlink:href="#linear-gradient-15"/><linearGradient id="linear-gradient-34" x1="298.22" y1="38.98" x2="329.41" y2="38.98" xlink:href="#linear-gradient-15"/><linearGradient id="linear-gradient-35" x1="180.15" y1="183.44" x2="179.09" y2="149.73" xlink:href="#linear-gradient"/><linearGradient id="linear-gradient-36" x1="162.71" y1="45.65" x2="128.08" y2="19.74" xlink:href="#linear-gradient"/><linearGradient id="linear-gradient-37" x1="180.9" y1="359.82" x2="166.11" y2="267.38" xlink:href="#linear-gradient"/><linearGradient id="linear-gradient-38" x1="121.37" y1="301.5" x2="183.19" y2="301.5" xlink:href="#linear-gradient"/></defs><title>9</title><path d="M383.46,202.13c.3,23-13.19,44.08-29.51,60.27-14.32,14.2-31.31,25.9-50.21,32.94-34.16,12.72-72.34,6.81-108,14.09a129.38,129.38,0,0,1-20.86,2.62h-.05l-2,.06c-7,.18-13.32-.19-20.46-.3L136.7,309.9l-.26,0-.89-.11c-.08,0-.17-.07-.25-.12h0q-6.08-2.68-11.94-5.81a187.87,187.87,0,0,1-75.63-74.1c-18.53-33.35-25.44-77.51-2.81-108.22,19.15-26,53.36-35.12,79.42-54.17,10-7.32,19-16.26,30.1-21.82,16.33-8.18,35.39-8.2,53.65-8.06,10.23.09,20.59.18,30.51,2.71,33.53,8.53,53.67,41.4,77.57,66.42C330,121.08,346,133.48,359.22,148.51S383.21,182.09,383.46,202.13Z" transform="translate(-30.66 -37.43)" fill="#cf002d" opacity="0.18" style="isolation:isolate"/><rect x="97.11" y="45.74" width="50.01" height="7.55" fill="#cf002d"/><polygon points="139.51 153.06 98.4 153.06 87.99 52.76 153.07 52.76 139.51 153.06" fill="#cf002d"/><polygon points="139.51 153.06 98.4 153.06 87.99 52.76 153.07 52.76 139.51 153.06" fill="url(#linear-gradient)"/><path d="M145.87,181V143.2s7.22-26.25,15.86-31.9A22.06,22.06,0,0,0,171.2,96h11.73L166,190.5l-20.17-.67Z" transform="translate(-30.66 -37.43)" fill="url(#linear-gradient-2)"/><path d="M226.73,118.19c.62-1.43,1-3,1.66-4.4,1.86-4.32,5.41-7.48,9.12-10.12a59.8,59.8,0,0,1,37.15-11.41,37.5,37.5,0,0,1,16.53,4.19,25,25,0,0,1,11.67,13.14,28.21,28.21,0,0,1,1.34,6.21,12.84,12.84,0,0,1-.27,5.36,13.4,13.4,0,0,1-1.34,2.71l-12.11,20.48c-2.14,3.64-4.39,7.38-7.83,9.66s-7.93,2.89-12,4.09-7.82,3-12,2.68c-3.56-.27-6.94-2.05-10.31-3.53-7.91-3.46-16.79-5.73-22.6-12.49-2.13-2.47-3.76-5.37-5.64-8-1.1-1.56-2.29-3-2-4.92.39-2.47,2.72-4.75,4.12-6.59A33.48,33.48,0,0,0,226.73,118.19Z" transform="translate(-30.66 -37.43)" fill="#cf002d"/><path d="M226.73,118.19c.62-1.43,1-3,1.66-4.4,1.86-4.32,5.41-7.48,9.12-10.12a59.8,59.8,0,0,1,37.15-11.41,37.5,37.5,0,0,1,16.53,4.19,25,25,0,0,1,11.67,13.14,28.21,28.21,0,0,1,1.34,6.21,12.84,12.84,0,0,1-.27,5.36,13.4,13.4,0,0,1-1.34,2.71l-12.11,20.48c-2.14,3.64-4.39,7.38-7.83,9.66s-7.93,2.89-12,4.09-7.82,3-12,2.68c-3.56-.27-6.94-2.05-10.31-3.53-7.91-3.46-16.79-5.73-22.6-12.49-2.13-2.47-3.76-5.37-5.64-8-1.1-1.56-2.29-3-2-4.92.39-2.47,2.72-4.75,4.12-6.59A33.48,33.48,0,0,0,226.73,118.19Z" transform="translate(-30.66 -37.43)" fill="url(#linear-gradient-3)"/><path d="M225.52,100.58c1.2,3.44,2.77,6.79,4.22,10.13,1.42,4.23,3,7.74,3.86,12.13.34,1.77.22,2.69,1.83,3.71,1.91,1.2,4.24-.3,5,2.64,1.28,4.87,3.16,9.94,7,13.16A16.56,16.56,0,0,0,258,146c3.81,0,7.71-1.07,10.17-3.91,1.87-2.16,2.73-5.09,3.44-8a3.12,3.12,0,0,1,.78-1.69,2.89,2.89,0,0,1,1.58-.52l11.17-1.36a8.26,8.26,0,0,0,3.31-.88,8.44,8.44,0,0,0,1.89-1.79L307,108.44a128.68,128.68,0,0,1-7.33-11.13L285.4,118.56l9.44-26.87-8.38-4.78L272.66,112l5.81-36a4.77,4.77,0,0,0-.2-3.1c-1.46-2.65-5.4-.61-7.95-2.06q-5.94,20.43-11,41.21l1.51-23.64a3.63,3.63,0,0,0-.51-2.58c-1.39-1.65-4,.35-5.8-.68l-3.68,25.53c-.63-12.13-1.27-24.28-3-36.38A3,3,0,0,0,246.83,72c-1.12-.65-2.38.55-3.6.2a148.55,148.55,0,0,0,3.71,39,90.63,90.63,0,0,1-3.22-15.89,11,11,0,0,0-1-4.15c-.7-1.26-2.14-2.26-3.41-1.88-1.67.5-1.94,2.8-1.92,4.66l.15,21.55q-3-16.05-4.65-32.21L225,89.61a3.69,3.69,0,0,0-1.14,1.28,3.93,3.93,0,0,0-.16,2A34.68,34.68,0,0,0,225.52,100.58Z" transform="translate(-30.66 -37.43)" fill="#cf002d"/><path d="M223.77,102.89c1.2,3.44,2.77,6.79,4.22,10.13,1.42,4.23,3,7.74,3.86,12.13.34,1.77.22,2.69,1.83,3.71,1.91,1.2,4.24-.31,5,2.64,1.27,4.87,3.16,9.94,7,13.16a16.54,16.54,0,0,0,10.57,3.62c3.8,0,7.71-1.07,10.17-3.91,1.86-2.16,2.73-5.09,3.44-8a3.13,3.13,0,0,1,.78-1.68,2.83,2.83,0,0,1,1.57-.52l11.17-1.36a8.26,8.26,0,0,0,3.32-.88,8.44,8.44,0,0,0,1.89-1.79l16.61-19.42a126.39,126.39,0,0,1-7.33-11.13l-14.23,21.25L293.09,94l-8.38-4.79-13.81,25.1,5.82-36a4.76,4.76,0,0,0-.21-3.1c-1.45-2.65-5.39-.61-7.94-2.06q-5.94,20.43-11,41.21l1.5-23.64a3.53,3.53,0,0,0-.51-2.58c-1.38-1.65-4,.35-5.79-.68l-3.68,25.53c-.63-12.13-1.27-24.28-3-36.38a3,3,0,0,0-1.07-2.29c-1.12-.65-2.38.55-3.6.2a149,149,0,0,0,3.7,39A92.69,92.69,0,0,1,242,97.53a11.17,11.17,0,0,0-1-4.15c-.7-1.26-2.14-2.26-3.41-1.88-1.67.5-1.94,2.8-1.93,4.66l.15,21.54q-3-16-4.64-32.2l-7.88,6.42a3.62,3.62,0,0,0-1.15,1.28,4,4,0,0,0-.15,2A34.68,34.68,0,0,0,223.77,102.89Z" transform="translate(-30.66 -37.43)" fill="url(#linear-gradient-4)"/><path d="M231.16,91.27a2.5,2.5,0,0,1,.5-2,2.15,2.15,0,0,1,1.33-.38l2.71-.17a1.46,1.46,0,0,1,1.12.25,1.64,1.64,0,0,1,.38,1,60.58,60.58,0,0,1,.3,10.07,153,153,0,0,0,.75,16.13c.52,5.44,1.76,11.09,1.9,16.49-2.74-.5-6.24-1.76-7.23-4.87-1-3.3-.56-7.46-.7-10.82Z" transform="translate(-30.66 -37.43)" fill="#cf002d"/><path d="M233,91.17a2.51,2.51,0,0,1,.5-2,2.17,2.17,0,0,1,1.33-.38l2.72-.17a1.45,1.45,0,0,1,1.11.26,1.66,1.66,0,0,1,.39,1,60.54,60.54,0,0,1,.29,10.07,150.19,150.19,0,0,0,.76,16.12c.51,5.44,1.75,11.09,1.89,16.49-2.74-.5-6.24-1.76-7.22-4.86-1-3.3-.57-7.47-.71-10.83Z" transform="translate(-30.66 -37.43)" fill="url(#linear-gradient-5)"/><path d="M216.74,133.79a88.16,88.16,0,0,1,23.58-4.52c-1.07,9.39,7.25,19.5,16.36,19.88s16.65-9.08,14.82-18.59l23.35-1.27c2.06,5.93,1.4,12.24.72,18.28l-4.2,36.87a5.93,5.93,0,0,1-1.2,3.58,5.33,5.33,0,0,1-3.51,1.16,382,382,0,0,1-40.93,1.21c-5.09-.13-10.35-.39-15.1-2.73C215.69,180.31,217,147.58,216.74,133.79Z" transform="translate(-30.66 -37.43)" fill="#cf002d"/><path d="M290.17,188c1.93-11.34,2.55-30.53,1.15-42.88a134.07,134.07,0,0,1-.72-15.62,87.24,87.24,0,0,1,14.26-10.16q.7,20.07.81,40.1c0,5.63,1.23,11.69-2.08,16a47,47,0,0,1-5.88,6.32C296.47,182.93,290.59,186.58,290.17,188Z" transform="translate(-30.66 -37.43)" fill="#cf002d"/><path d="M290.17,188c1.93-11.34,2.55-30.53,1.15-42.88a134.07,134.07,0,0,1-.72-15.62,87.24,87.24,0,0,1,14.26-10.16q.7,20.07.81,40.1c0,5.63,1.23,11.69-2.08,16a47,47,0,0,1-5.88,6.32C296.47,182.93,290.59,186.58,290.17,188Z" transform="translate(-30.66 -37.43)" fill="url(#linear-gradient-6)"/><path d="M267.22,95.63a7.51,7.51,0,0,0-.75-2.76C265.38,91,263,90.51,261,90.24a2.2,2.2,0,0,0-1.42.13c-.6.37-.7,1.24-.71,2a73.07,73.07,0,0,0,.85,10.61c1.3,9.72,2.89,19.42,4.49,29.11a26.31,26.31,0,0,0,2,7.46,38.42,38.42,0,0,0,4.36-8,14.38,14.38,0,0,0,1.11-4.21c.35-4.4-1.79-9.11-2.07-13.6C269.22,107.72,268,101.61,267.22,95.63Z" transform="translate(-30.66 -37.43)" fill="#cf002d"/><path d="M280.35,94.16a2.34,2.34,0,0,0-.08-1.61,2.39,2.39,0,0,0-1.17-.87l-6.48-3c-2.49,15.84-5.37,33.21-4.46,49.59,2.33-.36,4.28-6.27,5.95-8.21a11.09,11.09,0,0,0,3.12-7.72A232.34,232.34,0,0,1,280.35,94.16Z" transform="translate(-30.66 -37.43)" fill="#cf002d"/><path d="M281.7,96.14a8.47,8.47,0,0,1,.59,3c.74,10.51,1.33,21.24-1.3,31.12a1.94,1.94,0,0,1-.41.88,1.75,1.75,0,0,1-1,.39,17.55,17.55,0,0,1-4.7.18c.13-4.82,2.31-9.17,2.75-13.94.16-1.77.09-3.57.09-5.36a78.91,78.91,0,0,1,.69-9.75c.27-2.15.2-7.38,1.64-8.82A7.29,7.29,0,0,1,281.7,96.14Z" transform="translate(-30.66 -37.43)" fill="#cf002d"/><path d="M281.7,96.14a8.47,8.47,0,0,1,.59,3c.74,10.51,1.33,21.24-1.3,31.12a1.94,1.94,0,0,1-.41.88,1.75,1.75,0,0,1-1,.39,17.55,17.55,0,0,1-4.7.18c.13-4.82,2.31-9.17,2.75-13.94.16-1.77.09-3.57.09-5.36a78.91,78.91,0,0,1,.69-9.75c.27-2.15.2-7.38,1.64-8.82A7.29,7.29,0,0,1,281.7,96.14Z" transform="translate(-30.66 -37.43)" fill="url(#linear-gradient-7)"/><path d="M267.54,106l-3.65-1.45c-2.12,9.33-4.24,18.67-5.95,28.13-.82,4.58-1.56,9.27-1.07,14a2.12,2.12,0,0,0,.32,1.07,1.85,1.85,0,0,0,.93.57c8.85,2.89,8-10.58,8.52-16.19A218.82,218.82,0,0,0,267.54,106Z" transform="translate(-30.66 -37.43)" fill="#cf002d"/><path d="M267.54,106l-3.65-1.45c-2.12,9.33-4.24,18.67-5.95,28.13-.82,4.58-1.56,9.27-1.07,14a2.12,2.12,0,0,0,.32,1.07,1.85,1.85,0,0,0,.93.57c8.85,2.89,8-10.58,8.52-16.19A218.82,218.82,0,0,0,267.54,106Z" transform="translate(-30.66 -37.43)" fill="url(#linear-gradient-8)"/><path d="M265,103.89l-7.51-1.7c1,15.15-5,29.57-3.54,44.72a1.83,1.83,0,0,0,.34,1.05,1.52,1.52,0,0,0,.94.41c7,1.12,7.1-4.28,7.53-9.84q.87-11,1.54-22.07Q264.64,110.18,265,103.89Z" transform="translate(-30.66 -37.43)" fill="#cf002d"/><path d="M219.77,123.89c-4-7.27-7.45-15.21-7.43-23.3a2,2,0,0,1,.16-.94,1.73,1.73,0,0,1,.7-.61l5-3c-.54,5.77.82,11.75,3,17.31a127.88,127.88,0,0,0,8.15,16c.17.29.33.65.17.91a.75.75,0,0,1-.63.26c-1.61.13-4.57,1-6.06-.24S220.69,125.58,219.77,123.89Z" transform="translate(-30.66 -37.43)" fill="#cf002d"/><path d="M217.22,96.14a46.77,46.77,0,0,0,.75,10.94,42.19,42.19,0,0,0,4.09,10.13c2.25,4.28,4.72,8.44,7.18,12.61a1.27,1.27,0,0,0,.48.52,1,1,0,0,0,.56,0l3.7-.64-2.86-5.17a125,125,0,0,1-7.37-14.9,48.76,48.76,0,0,1-2.36-7.9c-.21-1.08-.16-2.47-.89-3.36S218.15,96.78,217.22,96.14Z" transform="translate(-30.66 -37.43)" fill="#cf002d"/><path d="M217.22,96.14a46.77,46.77,0,0,0,.75,10.94,42.19,42.19,0,0,0,4.09,10.13c2.25,4.28,4.72,8.44,7.18,12.61a1.27,1.27,0,0,0,.48.52,1,1,0,0,0,.56,0l3.7-.64-2.86-5.17a125,125,0,0,1-7.37-14.9,48.76,48.76,0,0,1-2.36-7.9c-.21-1.08-.16-2.47-.89-3.36S218.15,96.78,217.22,96.14Z" transform="translate(-30.66 -37.43)" fill="url(#linear-gradient-9)"/><path d="M242.07,127.14q-.84-17.13-1.59-34.26c2.57-.52,5.12-1.16,7.62-1.92a26.6,26.6,0,0,1,.66,7.75,397.9,397.9,0,0,0,2.43,47.84c0-.38-4-3.15-4.54-3.73a17.93,17.93,0,0,1-3.48-5C241.89,134.67,242.23,130.37,242.07,127.14Z" transform="translate(-30.66 -37.43)" fill="#cf002d"/><path d="M251.21,94.84a9.35,9.35,0,0,1,.51,2.72,258.5,258.5,0,0,1,.05,49.21c.32-3.06-1.07-7.33-1.43-10.48q-.63-5.46-1-10.92-.8-10.92-.68-21.81c0-2.32-.88-9.81.83-11.21A5.8,5.8,0,0,1,251.21,94.84Z" transform="translate(-30.66 -37.43)" fill="#cf002d"/><path d="M251.21,94.84a9.35,9.35,0,0,1,.51,2.72,258.5,258.5,0,0,1,.05,49.21c.32-3.06-1.07-7.33-1.43-10.48q-.63-5.46-1-10.92-.8-10.92-.68-21.81c0-2.32-.88-9.81.83-11.21A5.8,5.8,0,0,1,251.21,94.84Z" transform="translate(-30.66 -37.43)" fill="url(#linear-gradient-10)"/><path d="M250.24,102.71a3.6,3.6,0,0,1,0-1.35,3.22,3.22,0,0,1,.7-1.11L253.79,97a64.84,64.84,0,0,1,2.92,7.8,13.23,13.23,0,0,1,.62,2.88,13.77,13.77,0,0,1-.32,3.46,116.6,116.6,0,0,1-3.25,14.52c.86-2.75-1.27-8-1.79-10.81Q250.85,108.79,250.24,102.71Z" transform="translate(-30.66 -37.43)" fill="#cf002d"/><ellipse cx="245.03" cy="166.98" rx="1.33" ry="1.47" transform="translate(-81.08 104.42) rotate(-29.41)" fill="#cf002d"/><ellipse cx="255.31" cy="165.96" rx="1.33" ry="1.47" transform="translate(-79.26 109.34) rotate(-29.41)" fill="#cf002d"/><path d="M242.49,116.25a24,24,0,0,1,13.76,15.35c1.5,5.48,1,13.83,4.77,18.46,2.35,2.89,7.14,4.31,7.69,7.89.52,3.37-3.15,5.89-4.8,8.94a16.27,16.27,0,0,0-1.45,6.43c-.25,2.9-.49,5.8-.74,8.7-.12,1.5.35,5-1,6.17a2.72,2.72,0,0,1-1.65.42l-37.16,1.22c-3.09-13-4.56-26.23-5.7-39.47-.85-9.73-1.34-20.19,4.23-28.48a13.27,13.27,0,0,1,4.82-4.59c3.48-1.77,7.74-1.35,11.67-.8" transform="translate(-30.66 -37.43)" fill="url(#linear-gradient-11)"/><path d="M160.12,171.32l78.32-2.08c3.19-.08,5.86,2.12,5.95,4.93l0,1c.26,7.67-6.6,14.08-15.33,14.32L170.82,191c-8.72.23-16-5.81-16.28-13.48l0-1C154.41,173.75,156.92,171.41,160.12,171.32Z" transform="translate(-30.66 -37.43)" fill="#cf002d"/><path d="M244.39,174.17l0,1c.2,6-4,11.31-10.08,13.38a17.63,17.63,0,0,1-5.25.94L170.82,191c-8.72.24-16-5.8-16.28-13.47l0-1c-.09-2.81,2.41-5.15,5.61-5.23l16.52-.45,61.79-1.64C241.63,169.16,244.3,171.36,244.39,174.17Z" transform="translate(-30.66 -37.43)" fill="url(#linear-gradient-12)"/><path d="M235.43,185.55a3.55,3.55,0,0,1-1.08,3,17.63,17.63,0,0,1-5.25.94L170.82,191c-8.72.24-16-5.8-16.28-13.47l0-1c-.09-2.81,2.41-5.15,5.61-5.23l16.52-.45c3.5,1.07,7.39,3.57,3.53,6.27-1.95,1.38-4.92.83-4.92,3.69,0,2.13,2.26,3.89,4.38,4.57a19.78,19.78,0,0,0,7.33.44c9.41-.62,18.82-1.58,28.25-1.21,6,.23,12.09,1,17.91-.27a2.58,2.58,0,0,1,1.58,0A1.47,1.47,0,0,1,235.43,185.55Z" transform="translate(-30.66 -37.43)" fill="url(#linear-gradient-13)"/><path d="M156.93,166.82a1.64,1.64,0,0,0-2,.16,3.66,3.66,0,0,0-.92,1.76c-.38,1.27-.73,2.72.1,3.81a5.46,5.46,0,0,0,2.74,1.54l5,1.65a3.08,3.08,0,0,0,1.49.23c.56-.09,1-.48,1.54-.62s1.32.22,1.14.69c.39-.5,1.28-.39,1.85-.06a11.15,11.15,0,0,0,1.65,1.08c1.62.58,3.67-.85,5.1,0,.38.23.67.59,1.11.69s1.09-.26,1.61-.49c1.92-.87,4.18.19,6.08,1.09s4.55,1.54,6,.13l-1-.33a4.4,4.4,0,0,1,3.78,1.37,10.1,10.1,0,0,1,3.73-2.22,1.67,1.67,0,0,1,1-.09c.45.16.66.64,1.09.83s1.09,0,1.64,0a4.28,4.28,0,0,1,2,.88,7.87,7.87,0,0,0,8.28-.39,3.45,3.45,0,0,1,1.27-.74c1.13-.24,2,.79,3,1.33a5.71,5.71,0,0,0,4,.29c1.35-.32,2.59-.91,3.9-1.32a31.7,31.7,0,0,1,8.55-1l2.11-.06a7.23,7.23,0,0,1,2.78-1.9,2,2,0,0,1,1.23,0,1.83,1.83,0,0,1,.67.56,12.4,12.4,0,0,1,1.68,2.62,9.34,9.34,0,0,1,3.51-1.52,14.3,14.3,0,0,1,1.73-.07,31.12,31.12,0,0,0,5.52-.79,7,7,0,0,0,3.19-1.23,3.56,3.56,0,0,0,1.08-3.07,10.61,10.61,0,0,0-1.07-3.17,4.16,4.16,0,0,0-2.34-2.58,4.93,4.93,0,0,0-1.63-.1,43.53,43.53,0,0,0-5.82.78c.14-.57-.42-1.12-1.06-1.28a4.45,4.45,0,0,0-1.95.09l-3.08.6a2.52,2.52,0,0,1-.86.06,3.06,3.06,0,0,1-1-.47,4.87,4.87,0,0,0-5.5.58,18.52,18.52,0,0,0-9.78-.76c-3.11.56-6.11,1.54-9.23,2-5.4.8-10.91,0-16.38,0-6.76,0-13.69,1.16-20.19-.49-2.66-.67-5.39-1.82-8.08-1.23l1.36.69a8.87,8.87,0,0,0-4.32.94c0-.53-.51-.95-1-1.21-1.64-.82-3.91-.94-5.28.2C156.82,166.42,156.63,166.94,156.93,166.82Z" transform="translate(-30.66 -37.43)" fill="#cf002d"/><path d="M156.93,166.82a1.64,1.64,0,0,0-2,.16,3.66,3.66,0,0,0-.92,1.76c-.38,1.27-.73,2.72.1,3.81a5.46,5.46,0,0,0,2.74,1.54l5,1.65a3.08,3.08,0,0,0,1.49.23c.56-.09,1-.48,1.54-.62s1.32.22,1.14.69c.39-.5,1.28-.39,1.85-.06a11.15,11.15,0,0,0,1.65,1.08c1.62.58,3.67-.85,5.1,0,.38.23.67.59,1.11.69s1.09-.26,1.61-.49c1.92-.87,4.18.19,6.08,1.09s4.55,1.54,6,.13l-1-.33a4.4,4.4,0,0,1,3.78,1.37,10.1,10.1,0,0,1,3.73-2.22,1.67,1.67,0,0,1,1-.09c.45.16.66.64,1.09.83s1.09,0,1.64,0a4.28,4.28,0,0,1,2,.88,7.87,7.87,0,0,0,8.28-.39,3.45,3.45,0,0,1,1.27-.74c1.13-.24,2,.79,3,1.33a5.71,5.71,0,0,0,4,.29c1.35-.32,2.59-.91,3.9-1.32a31.7,31.7,0,0,1,8.55-1l2.11-.06a7.23,7.23,0,0,1,2.78-1.9,2,2,0,0,1,1.23,0,1.83,1.83,0,0,1,.67.56,12.4,12.4,0,0,1,1.68,2.62,9.34,9.34,0,0,1,3.51-1.52,14.3,14.3,0,0,1,1.73-.07,31.12,31.12,0,0,0,5.52-.79,7,7,0,0,0,3.19-1.23,3.56,3.56,0,0,0,1.08-3.07,10.61,10.61,0,0,0-1.07-3.17,4.16,4.16,0,0,0-2.34-2.58,4.93,4.93,0,0,0-1.63-.1,43.53,43.53,0,0,0-5.82.78c.14-.57-.42-1.12-1.06-1.28a4.45,4.45,0,0,0-1.95.09l-3.08.6a2.52,2.52,0,0,1-.86.06,3.06,3.06,0,0,1-1-.47,4.87,4.87,0,0,0-5.5.58,18.52,18.52,0,0,0-9.78-.76c-3.11.56-6.11,1.54-9.23,2-5.4.8-10.91,0-16.38,0-6.76,0-13.69,1.16-20.19-.49-2.66-.67-5.39-1.82-8.08-1.23l1.36.69a8.87,8.87,0,0,0-4.32.94c0-.53-.51-.95-1-1.21-1.64-.82-3.91-.94-5.28.2C156.82,166.42,156.63,166.94,156.93,166.82Z" transform="translate(-30.66 -37.43)" fill="url(#linear-gradient-14)"/><path d="M251,160.05l7.41,7a5.85,5.85,0,0,1,1.61,2.06,1.84,1.84,0,0,1-.72,2.26,3.73,3.73,0,0,1-1.89.28l-14.92-.4c-3.2-.08-6.39-.17-9.58-.08-6.95.2-13.86,1.22-20.82,1.06-1.62,0-3.67-.56-5.24-.38a23.48,23.48,0,0,0-3.38,1.19,35.67,35.67,0,0,1-9.5,1.4c-9.32.21-17-2.66-17.07-6.41s7.36-7,16.68-7.16,17,2.66,17.07,6.41c.05,1.74-1.54,3.37-4.2,4.63-7.11.74-15,1.21-22.12,1.53-5.26.23-10.18-2-15.43-2.4a76.43,76.43,0,0,0-21.71,1.56c-.58-1.48.92-2.91,2.29-3.91a40.4,40.4,0,0,1,10.71-6.08,49.78,49.78,0,0,1,9.53-1.88c18.85-2.43,37.78-4.87,56.83-4.8C235.09,156,245.17,154.52,251,160.05Z" transform="translate(-30.66 -37.43)" fill="#cf002d"/><path d="M251,160.05l7.41,7a5.85,5.85,0,0,1,1.61,2.06,1.84,1.84,0,0,1-.72,2.26,3.73,3.73,0,0,1-1.89.28l-14.92-.4c-3.2-.08-6.39-.17-9.58-.08-6.95.2-13.86,1.22-20.82,1.06-1.62,0-3.67-.56-5.24-.38a23.48,23.48,0,0,0-3.38,1.19,35.67,35.67,0,0,1-9.5,1.4c-9.32.21-17-2.66-17.07-6.41s7.36-7,16.68-7.16,17,2.66,17.07,6.41c.05,1.74-1.54,3.37-4.2,4.63-7.11.74-15,1.21-22.12,1.53-5.26.23-10.18-2-15.43-2.4a76.43,76.43,0,0,0-21.71,1.56c-.58-1.48.92-2.91,2.29-3.91a40.4,40.4,0,0,1,10.71-6.08,49.78,49.78,0,0,1,9.53-1.88c18.85-2.43,37.78-4.87,56.83-4.8C235.09,156,245.17,154.52,251,160.05Z" transform="translate(-30.66 -37.43)" fill="#cf002d"/><path d="M251,160.05l7.41,7a5.85,5.85,0,0,1,1.61,2.06,1.84,1.84,0,0,1-.72,2.26,3.73,3.73,0,0,1-1.89.28l-14.92-.4c-3.2-.08-6.39-.17-9.58-.08-6.95.2-13.86,1.22-20.82,1.06-1.62,0-3.67-.56-5.24-.38a23.48,23.48,0,0,0-3.38,1.19,35.67,35.67,0,0,1-9.5,1.4c-9.32.21-17-2.66-17.07-6.41s7.36-7,16.68-7.16,17,2.66,17.07,6.41c.05,1.74-1.54,3.37-4.2,4.63-7.11.74-15,1.21-22.12,1.53-5.26.23-10.18-2-15.43-2.4a76.43,76.43,0,0,0-21.71,1.56c-.58-1.48.92-2.91,2.29-3.91a40.4,40.4,0,0,1,10.71-6.08,49.78,49.78,0,0,1,9.53-1.88c18.85-2.43,37.78-4.87,56.83-4.8C235.09,156,245.17,154.52,251,160.05Z" transform="translate(-30.66 -37.43)" fill="url(#linear-gradient-15)"/><path d="M152.78,169.32c3.8-.91,7.85-1.81,11.62-.82,2.25.59,4.28,1.83,6.61,2a23.38,23.38,0,0,0,4.17-.27,66.41,66.41,0,0,1,9.14.17,68.4,68.4,0,0,0,12.39-.62,39.24,39.24,0,0,1,7.71-.72c2.88.17,5.65,1.15,8.54,1.25,5.32.19,10.28-2.62,15.62-2.74,2.57-.06,5.21.51,7.69-.1a9.9,9.9,0,0,1,2.08-.45,7.54,7.54,0,0,1,1.94.3,18.5,18.5,0,0,0,8,0,3.39,3.39,0,0,0,1.19-.43,2.54,2.54,0,0,0,.91-1.24,7.77,7.77,0,0,0-.41-6.84c-10.5,2.46-21.56,1.73-32.43,1.78-17,.09-34,2.16-51,.87-2.57-.19-7.33-.92-9.34,1a15.11,15.11,0,0,0-1.66,2.65C155.14,165.86,153.56,169.14,152.78,169.32Z" transform="translate(-30.66 -37.43)" fill="#cf002d"/><ellipse cx="230.6" cy="163.94" rx="16.84" ry="6.8" transform="translate(-49.96 -6.17) rotate(-7.45)" fill="url(#linear-gradient-16)"/><ellipse cx="230.13" cy="161.35" rx="16.84" ry="6.8" transform="translate(-49.63 -6.25) rotate(-7.45)" fill="url(#linear-gradient-17)"/><ellipse cx="194.91" cy="166.77" rx="16.88" ry="6.79" transform="translate(-34.12 -33.31) rotate(-1.2)" fill="url(#linear-gradient-18)"/><path d="M156.4,148.15c-.15,3.92-4.39,6.59-8.14,8.72-1.1.63-2.31,1.43-2.38,2.58a2.81,2.81,0,0,0,.67,1.77,9.78,9.78,0,0,0,9.3,3.45c2.77-.5,5.67-2.13,8.2-1,1.78.79,2.54,2.67,4,3.81a6,6,0,0,0,5.47.8c2.3-.82,3.88-3,6.34-3.32,3.26-.39,5.58,2.64,8.54,3.9a8.43,8.43,0,0,0,6.75-.15c3.05-1.46,5.09-4.82,8.56-4.91a8.28,8.28,0,0,1,2.82.52,26.59,26.59,0,0,1,5,2.19,1.75,1.75,0,0,0,1.2.33,1.43,1.43,0,0,0,.81-.7,15,15,0,0,1,2.93-3.8,4.47,4.47,0,0,1,4.8-.65,6.73,6.73,0,0,1,1.84,2.1,3.34,3.34,0,0,0,2.32,1.59c1,.08,2.05-.95,1.49-1.7.1-1.91,4.18-2.78,6.26-2.19s3.81,1.95,5.93,2.39c3.14.64,6.66-1.21,7.51-3.95a2.06,2.06,0,0,1,.69-1.27,2.25,2.25,0,0,1,1.92.1c2.07.78,4.17,1.74,6.43,1.71s4.69-1.54,4.54-3.52c-.1-1.31-1.23-2.35-2.3-3.26l-7-6a6.45,6.45,0,0,0-2.75-1.64,6.91,6.91,0,0,0-2.13,0c-6.62.67-13.13,2.09-19.74,2.83-15.76,1.76-31.69-.32-47.54-1.19C171.73,147.3,163.27,146.69,156.4,148.15Z" transform="translate(-30.66 -37.43)" fill="#cf002d"/><path d="M156.4,148.15c-.15,3.92-4.39,6.59-8.14,8.72-1.1.63-2.31,1.43-2.38,2.58a2.81,2.81,0,0,0,.67,1.77,9.78,9.78,0,0,0,9.3,3.45c2.77-.5,5.67-2.13,8.2-1,1.78.79,2.54,2.67,4,3.81a6,6,0,0,0,5.47.8c2.3-.82,3.88-3,6.34-3.32,3.26-.39,5.58,2.64,8.54,3.9a8.43,8.43,0,0,0,6.75-.15c3.05-1.46,5.09-4.82,8.56-4.91a8.28,8.28,0,0,1,2.82.52,26.59,26.59,0,0,1,5,2.19,1.75,1.75,0,0,0,1.2.33,1.43,1.43,0,0,0,.81-.7,15,15,0,0,1,2.93-3.8,4.47,4.47,0,0,1,4.8-.65,6.73,6.73,0,0,1,1.84,2.1,3.34,3.34,0,0,0,2.32,1.59c1,.08,2.05-.95,1.49-1.7.1-1.91,4.18-2.78,6.26-2.19s3.81,1.95,5.93,2.39c3.14.64,6.66-1.21,7.51-3.95a2.06,2.06,0,0,1,.69-1.27,2.25,2.25,0,0,1,1.92.1c2.07.78,4.17,1.74,6.43,1.71s4.69-1.54,4.54-3.52c-.1-1.31-1.23-2.35-2.3-3.26l-7-6a6.45,6.45,0,0,0-2.75-1.64,6.91,6.91,0,0,0-2.13,0c-6.62.67-13.13,2.09-19.74,2.83-15.76,1.76-31.69-.32-47.54-1.19C171.73,147.3,163.27,146.69,156.4,148.15Z" transform="translate(-30.66 -37.43)" fill="url(#linear-gradient-19)"/><path d="M156.39,152.07c-1.62,3.54-7.84,4.24-9,7.92a21.15,21.15,0,0,0,12-4.88,9.15,9.15,0,0,1-1.57,4l5.24-4a8.43,8.43,0,0,1-1.46,6.1c1.42-.55,2-2,2.64-3.25s1.79-2.59,3.33-2.44c.9,1,.59,2.5.5,3.81a10.28,10.28,0,0,0,3.7,8.37c.6-2-.46-4-1-6s-.35-4.53,1.73-5.41A8.9,8.9,0,0,0,174,161l-.29-4.21,1.36.65a4.65,4.65,0,0,1,4.49-1.64l1.66,8a10.59,10.59,0,0,0,.36-8.1,3.47,3.47,0,0,1,3.27,1.33,7.9,7.9,0,0,1,1.26,3.16,3.3,3.3,0,0,0,1.17-3.83c2.19.8,3,3.09,3.76,5.07s2.17,4.21,4.55,4.32a22.79,22.79,0,0,1-3.73-8.68,2.39,2.39,0,0,1,2.37,2l2.75-3c-.08,2.21,1.35,4.29,3.26,5.72a22.85,22.85,0,0,0,6.63,3.07,7.88,7.88,0,0,0,4.45.52c2.81-.76,3.5-4,5.73-5.7-3.5.09-6,3.59-9.53,3.53a7.77,7.77,0,0,1-3.26-.94,17.78,17.78,0,0,1-5.23-3.88c-.41-.44-.8-1.06-.48-1.56a1.54,1.54,0,0,1,.8-.51c2.6-.92,5.51-.18,8.31-.16a32.63,32.63,0,0,0,4.83-.46,34.58,34.58,0,0,0,7.94-1.81,16.11,16.11,0,0,1,3.07,7.91,18.57,18.57,0,0,0,.68-7.44A49.05,49.05,0,0,0,231,155c-.47,2,1.61,3.74,3.62,4.78a29.48,29.48,0,0,0,5.47,2.15,7.82,7.82,0,0,0,4,.31c2.34-.62,3.45-2.93,4.25-5a10.15,10.15,0,0,1-6.65,3c-2.56.08-5.23-1.19-6.14-3.3a1.1,1.1,0,0,1-.09-.93c.22-.44.83-.58,1.37-.66l8.17-1.27a3.22,3.22,0,0,1,1.31,0,3,3,0,0,1,.94.47l3.32,2.2-2.08-3.91a37.22,37.22,0,0,1,7.88,2.47c.94-1.47.13-3.42-1.33-4.53a13.52,13.52,0,0,0-5.24-2c-4.14,2.39-9.09,3.42-14,4.13-16.27,2.34-32.88,1.45-49.32.37a91,91,0,0,1-15.49-1.95,38.87,38.87,0,0,0-6.24-1.31,8.16,8.16,0,0,0-6,1.58" transform="translate(-30.66 -37.43)" fill="#cf002d"/><path d="M251.87,141.17l0,2.4c.07,6-5.41,10.89-12.23,11l-3.17,0-71.57.58c-6.82.06-12.4-4.76-12.46-10.76l0-2.39c-.14-11.93,7.76-22.28,19.26-27.09A37.15,37.15,0,0,1,185.87,112l32-.26C236.46,111.62,251.7,124.78,251.87,141.17Z" transform="translate(-30.66 -37.43)" fill="#cf002d"/><path d="M248.06,152.12a13.2,13.2,0,0,1-8,2.69l-74.74.62c-6.82,0-12.4-4.76-12.46-10.76l0-2.4c-.16-15.51,13.23-28.34,30.46-29.81-11.5,4.81-19.39,15.17-19.26,27.09l0,2.4c.07,6,5.64,10.81,12.46,10.76Z" transform="translate(-30.66 -37.43)" fill="url(#linear-gradient-20)"/><path d="M240.68,143.89l0,2.4a10.32,10.32,0,0,1-4.2,8.26l-71.57.58c-6.82.06-12.4-4.76-12.46-10.76l0-2.39c-.14-11.93,7.76-22.28,19.26-27.09,1-.09,2-.14,3-.14l32-.26C225.27,114.34,240.51,127.5,240.68,143.89Z" transform="translate(-30.66 -37.43)" fill="url(#linear-gradient-21)"/><path d="M181.39,119.28a2.21,2.21,0,0,0,.56.38.85.85,0,0,0,.68,0,.61.61,0,0,0,.27-.71,2,2,0,0,0-.44-.7l-2-2.29a1.79,1.79,0,0,0-.68-.57c-1-.4-2.22.55-1.42,1.33S180.39,118.43,181.39,119.28Z" transform="translate(-30.66 -37.43)" fill="#cf002d"/><path d="M168.5,124.64q3.44-2.16,7-4.08a.42.42,0,0,1,.32-.08.34.34,0,0,1,.19.2l.7,1.26a42.28,42.28,0,0,1-4.14,3.21,1.75,1.75,0,0,1-1.35.41c-.58-.17-.73-.82-1.08-1.25" transform="translate(-30.66 -37.43)" fill="#cf002d"/><path d="M182.33,124.16c1.77-.42,3.55-.79,5.35-1.09a.67.67,0,0,1-.13,1,2.64,2.64,0,0,1-1.12.44l-5.19,1.15c-.5.11-2.15.13-1.43-.62A6.28,6.28,0,0,1,182.33,124.16Z" transform="translate(-30.66 -37.43)" fill="#cf002d"/><path d="M196.16,118.18a2.24,2.24,0,0,0,.58-.35.61.61,0,0,0,.21-.58.73.73,0,0,0-.68-.44,2.46,2.46,0,0,0-.89.16l-3.1,1a1.91,1.91,0,0,0-.82.4,1,1,0,0,0,1,1.6C193.73,119.44,194.94,118.76,196.16,118.18Z" transform="translate(-30.66 -37.43)" fill="#cf002d"/><path d="M201.7,119.38a31.49,31.49,0,0,1,.24-3.89,1.07,1.07,0,0,1,1.35,1.25l-.12,3.8c0,.37-.48,1.47-1.18.77C201.52,120.84,201.7,119.88,201.7,119.38Z" transform="translate(-30.66 -37.43)" fill="#cf002d"/><path d="M212.43,123a2.16,2.16,0,0,0,.54.29.78.78,0,0,0,.6-.06.53.53,0,0,0,.15-.65,1.78,1.78,0,0,0-.46-.57l-2-1.83a1.67,1.67,0,0,0-.67-.44c-.9-.26-1.88.67-1.09,1.29S211.47,122.33,212.43,123Z" transform="translate(-30.66 -37.43)" fill="#cf002d"/><path d="M190.82,116a1.84,1.84,0,0,0,.44.39.68.68,0,0,0,.59.07.56.56,0,0,0,.34-.59,1.72,1.72,0,0,0-.29-.65L190.48,113a1.77,1.77,0,0,0-.52-.57c-.81-.44-2,.25-1.43,1S190.07,115.13,190.82,116Z" transform="translate(-30.66 -37.43)" fill="#cf002d"/><path d="M216.87,115.4a2.14,2.14,0,0,0,.57-.2.58.58,0,0,0,.31-.46.62.62,0,0,0-.5-.5,2.1,2.1,0,0,0-.79,0l-2.88.32a1.93,1.93,0,0,0-.79.21c-.78.49-.51,1.73.52,1.54C214.51,116.09,215.7,115.7,216.87,115.4Z" transform="translate(-30.66 -37.43)" fill="#cf002d"/><path d="M213.81,127.18c1.5-.53,3-1,4.56-1.42a.59.59,0,0,1,0,.86,2.18,2.18,0,0,1-.93.48L213,128.56c-.42.14-1.87.29-1.31-.43C212.06,127.66,213.23,127.38,213.81,127.18Z" transform="translate(-30.66 -37.43)" fill="#cf002d"/><path d="M198.24,125.23c1.6.19,3.19.44,4.76.74.12.3-.15.63-.49.75a2.41,2.41,0,0,1-1.07,0l-4.66-.65c-.45-.06-1.8-.55-.91-.94A5.76,5.76,0,0,1,198.24,125.23Z" transform="translate(-30.66 -37.43)" fill="#cf002d"/><path d="M225.24,120.75a1.89,1.89,0,0,0,.47-.36.51.51,0,0,0,.12-.52.67.67,0,0,0-.65-.33,2,2,0,0,0-.75.22l-2.61,1.11a1.7,1.7,0,0,0-.67.42.86.86,0,0,0,1.06,1.31C223.26,122.06,224.24,121.36,225.24,120.75Z" transform="translate(-30.66 -37.43)" fill="#cf002d"/><path d="M230.2,120.88c-.11-1.41-.15-2.83-.13-4.25a.79.79,0,0,1,.93.27,1.75,1.75,0,0,1,.23.92l.22,4.15c0,.4-.25,1.66-.86,1C230.19,122.49,230.24,121.43,230.2,120.88Z" transform="translate(-30.66 -37.43)" fill="#cf002d"/><path d="M181.39,119.28a2.21,2.21,0,0,0,.56.38.85.85,0,0,0,.68,0,.61.61,0,0,0,.27-.71,2,2,0,0,0-.44-.7l-2-2.29a1.79,1.79,0,0,0-.68-.57c-1-.4-2.22.55-1.42,1.33S180.39,118.43,181.39,119.28Z" transform="translate(-30.66 -37.43)" fill="url(#linear-gradient-22)"/><path d="M168.5,124.64q3.44-2.16,7-4.08a.42.42,0,0,1,.32-.08.34.34,0,0,1,.19.2l.7,1.26a42.28,42.28,0,0,1-4.14,3.21,1.75,1.75,0,0,1-1.35.41c-.58-.17-.73-.82-1.08-1.25" transform="translate(-30.66 -37.43)" fill="url(#linear-gradient-23)"/><path d="M182.33,124.16c1.77-.42,3.55-.79,5.35-1.09a.67.67,0,0,1-.13,1,2.64,2.64,0,0,1-1.12.44l-5.19,1.15c-.5.11-2.15.13-1.43-.62A6.28,6.28,0,0,1,182.33,124.16Z" transform="translate(-30.66 -37.43)" fill="url(#linear-gradient-24)"/><path d="M196.16,118.18a2.24,2.24,0,0,0,.58-.35.61.61,0,0,0,.21-.58.73.73,0,0,0-.68-.44,2.46,2.46,0,0,0-.89.16l-3.1,1a1.91,1.91,0,0,0-.82.4,1,1,0,0,0,1,1.6C193.73,119.44,194.94,118.76,196.16,118.18Z" transform="translate(-30.66 -37.43)" fill="url(#linear-gradient-25)"/><path d="M201.7,119.38a31.49,31.49,0,0,1,.24-3.89,1.07,1.07,0,0,1,1.35,1.25l-.12,3.8c0,.37-.48,1.47-1.18.77C201.52,120.84,201.7,119.88,201.7,119.38Z" transform="translate(-30.66 -37.43)" fill="url(#linear-gradient-26)"/><path d="M212.43,123a2.16,2.16,0,0,0,.54.29.78.78,0,0,0,.6-.06.53.53,0,0,0,.15-.65,1.78,1.78,0,0,0-.46-.57l-2-1.83a1.67,1.67,0,0,0-.67-.44c-.9-.26-1.88.67-1.09,1.29S211.47,122.33,212.43,123Z" transform="translate(-30.66 -37.43)" fill="url(#linear-gradient-27)"/><path d="M190.82,116a1.84,1.84,0,0,0,.44.39.68.68,0,0,0,.59.07.56.56,0,0,0,.34-.59,1.72,1.72,0,0,0-.29-.65L190.48,113a1.77,1.77,0,0,0-.52-.57c-.81-.44-2,.25-1.43,1S190.07,115.13,190.82,116Z" transform="translate(-30.66 -37.43)" fill="url(#linear-gradient-28)"/><path d="M216.87,115.4a2.14,2.14,0,0,0,.57-.2.58.58,0,0,0,.31-.46.62.62,0,0,0-.5-.5,2.1,2.1,0,0,0-.79,0l-2.88.32a1.93,1.93,0,0,0-.79.21c-.78.49-.51,1.73.52,1.54C214.51,116.09,215.7,115.7,216.87,115.4Z" transform="translate(-30.66 -37.43)" fill="url(#linear-gradient-29)"/><path d="M213.81,127.18c1.5-.53,3-1,4.56-1.42a.59.59,0,0,1,0,.86,2.18,2.18,0,0,1-.93.48L213,128.56c-.42.14-1.87.29-1.31-.43C212.06,127.66,213.23,127.38,213.81,127.18Z" transform="translate(-30.66 -37.43)" fill="url(#linear-gradient-30)"/><path d="M198.24,125.23c1.6.19,3.19.44,4.76.74.12.3-.15.63-.49.75a2.41,2.41,0,0,1-1.07,0l-4.66-.65c-.45-.06-1.8-.55-.91-.94A5.76,5.76,0,0,1,198.24,125.23Z" transform="translate(-30.66 -37.43)" fill="url(#linear-gradient-31)"/><path d="M225.24,120.75a1.89,1.89,0,0,0,.47-.36.51.51,0,0,0,.12-.52.67.67,0,0,0-.65-.33,2,2,0,0,0-.75.22l-2.61,1.11a1.7,1.7,0,0,0-.67.42.86.86,0,0,0,1.06,1.31C223.26,122.06,224.24,121.36,225.24,120.75Z" transform="translate(-30.66 -37.43)" fill="url(#linear-gradient-32)"/><path d="M230.2,120.88c-.11-1.41-.15-2.83-.13-4.25a.79.79,0,0,1,.93.27,1.75,1.75,0,0,1,.23.92l.22,4.15c0,.4-.25,1.66-.86,1C230.19,122.49,230.24,121.43,230.2,120.88Z" transform="translate(-30.66 -37.43)" fill="url(#linear-gradient-33)"/><path d="M157.27,172.64a6.18,6.18,0,0,0,6.46,2.11,1.5,1.5,0,0,1,.59-.1c.58.07.82.8,1.39.85a2.83,2.83,0,0,0,.76-.14c.94-.16,1.61.73,2.38,1.23,1.16.76,2.76.64,4.19.44a7.63,7.63,0,0,1,4.25.16,5.75,5.75,0,0,0,1.59.74,3,3,0,0,0,1,0c1.38-.19,2.89-.46,4.11.14.62.3,1.1.79,1.74,1.06s1.57.19,1.82-.39c-2.73-.29-4.9-2.31-7.62-2.69a19.28,19.28,0,0,0-3,0c-1.37,0-2.73-.06-4.1-.15a12.27,12.27,0,0,1-3.63-.6c-.8-.32-1.51-.8-2.29-1.17a12.59,12.59,0,0,0-5.78-1.09,9.13,9.13,0,0,1-2.4-.1c-1.32-.33-2.46-1.4-3.81-1.19a1.72,1.72,0,0,0,1.11,1.2,6.21,6.21,0,0,0,1.78.38" transform="translate(-30.66 -37.43)" fill="url(#linear-gradient-34)"/><path d="M279,204.77c-3.69,4.49-8.16,8.27-12.57,12Q237.56,241.6,210.09,268c-2.46,2.37-4.93,4.75-7.34,7.19-.94.94-1.87,1.88-2.78,2.84l-1.67,1.74-.27.3c-6.33,6.78-12.11,14-16.44,22.19-.46.87-.91,1.74-1.38,2.6a17.15,17.15,0,0,1-3.83,5.15,12.45,12.45,0,0,1-3.64,2.12l-.17.07h0l-1.53,0c-6.24,0-12.52,0-18.75-.4a122.29,122.29,0,0,1-15.61-1.9l-.23,0-.89-.11c-.08,0-.17-.07-.25-.12h0a117.45,117.45,0,0,0,14.81-17.44q2.92-4.21,5.47-8.69a52.52,52.52,0,0,0,5-11.05c1.8-6,1.87-12.46,1.85-18.78,0-6.89-.16-13.78-.53-20.67a64.62,64.62,0,0,0-2.28-15.73c-1.58-5.07-4.41-9.9-8.71-13a10.75,10.75,0,0,1,10.41-2.8c5.92,1.68,9.12,8,11.24,13.74s4.26,12.2,9.54,15.35c4.87,2.91,11.27,2.09,16.26-.6s8.88-7,12.67-11.23l11.72-13.08c3.76-4.19,8.51-8.77,14.08-7.95a2.79,2.79,0,0,1,1.49.58c.8.74.67,2,.39,3.08-2.67,10.24-12.13,17.31-16.32,27,9.71-10.74,20.68-19.34,32.78-27.31a11.83,11.83,0,0,1,5.1-2.26c1.87-.2,4,.71,4.57,2.5a5.63,5.63,0,0,1-.59,3.91,25.69,25.69,0,0,1-4,6.31A48.29,48.29,0,0,1,276,201.6c1.42-.54,3.54-.71,4,.75A2.84,2.84,0,0,1,279,204.77Z" transform="translate(-30.66 -37.43)" fill="#e4a98a"/><polygon points="294.93 153.06 277.81 160.16 267.9 164.27 90.52 164.27 81.02 160.16 64.61 153.06 294.93 153.06" fill="#fff"/><polygon points="277.81 160.16 267.9 164.27 90.52 164.27 81.02 160.16 277.81 160.16" fill="url(#linear-gradient-35)"/><rect x="84.33" y="51.16" width="73.39" height="7.55" fill="#cf002d"/><polygon points="118.3 45.74 118.3 28.43 155.09 7.78 159.62 13.41 125.81 31.43 125.43 45.74 118.3 45.74" fill="#fff"/><polygon points="159.62 13.41 125.81 31.43 125.43 45.74 118.3 45.74 118.3 28.43 155.09 7.78 156.91 10.04 159.62 13.41" fill="#fff"/><polygon points="159.62 13.41 125.81 31.43 125.43 45.74 121.02 45.74 121.02 30.19 156.91 10.04 159.62 13.41" fill="url(#linear-gradient-36)"/><path d="M203.55,274.9A35.14,35.14,0,0,0,200,278c-.57.56-1.13,1.14-1.67,1.74l-.27.3c-6.33,6.78-12.11,14-16.44,22.19-.46.87-.91,1.74-1.38,2.6a17.15,17.15,0,0,1-3.83,5.15,12.45,12.45,0,0,1-3.64,2.12l-.17.07h0l-1.53,0c-6.24,0-12.52,0-18.75-.4a122.29,122.29,0,0,1-15.61-1.9h0c.56-.24,1.09-.46,1.52-.67a59.61,59.61,0,0,0,8.53-5c3.12-2.21,6-4.72,9.14-6.93.6-.44,1.22-.86,1.84-1.26,8.47-5.48,18.55-7.84,27.62-12.26,5.82-2.84,11.27-6.55,17.4-8.62C203,275.07,203.28,275,203.55,274.9Z" transform="translate(-30.66 -37.43)" opacity="0.42" fill="url(#linear-gradient-37)"/><path d="M183.18,305c.12,2.64-1.94,5-4.35,6.05a13.1,13.1,0,0,1-4,1h-.05c-.73.08-1.47.12-2.21.13h0l-1.53,0c-6.24,0-12.52,0-18.75-.4a122.29,122.29,0,0,1-15.61-1.9l-.23,0c-.38-.07-.76-.14-1.14-.23h0l-.11,0c-5-1-10.11-2.58-13.8-6.09a2.31,2.31,0,0,0,2,.3c4.69-.74,14.95-7.48,16.73-8.81,2.74-2,4.73-5.27,8.22-3.92a7.39,7.39,0,0,1,1.8,1.1c1.89,1.47,3.9,3.85,5.8,5.11.18.12.36.22.53.32a59,59,0,0,0,23.79,7.21Q181.7,305,183.18,305Z" transform="translate(-30.66 -37.43)" fill="#cf002d"/><path d="M183.18,305c.12,2.64-1.94,5-4.35,6.05a13.1,13.1,0,0,1-4,1h-.05c-.73.08-1.47.12-2.21.13h0l-1.53,0c-6.24,0-12.52,0-18.75-.4a122.29,122.29,0,0,1-15.61-1.9l-.23,0c-.38-.07-.76-.14-1.14-.23h0l-.11,0c-5-1-10.11-2.58-13.8-6.09a2.31,2.31,0,0,0,2,.3c4.69-.74,14.95-7.48,16.73-8.81,2.74-2,4.73-5.27,8.22-3.92a7.39,7.39,0,0,1,1.8,1.1c1.89,1.47,3.9,3.85,5.8,5.11.18.12.36.22.53.32a59,59,0,0,0,23.79,7.21Q181.7,305,183.18,305Z" transform="translate(-30.66 -37.43)" fill="url(#linear-gradient-38)"/></svg>