<svg height="512" viewBox="0 0 512 512" width="512" xmlns="http://www.w3.org/2000/svg"><g id="flat"><circle cx="256" cy="256" fill="#ff8706" r="208"/><path d="m85.474 375.108a207.744 207.744 0 0 0 170.526 88.892c114.875 0 208-93.125 208-208a207.037 207.037 0 0 0 -37.807-119.59c-83.28 113.195-202.444 198.351-340.719 238.698z" fill="#f47a00"/><path d="m80 24v96.474a15.525 15.525 0 0 1 -15.52 15.526h-.4a16.018 16.018 0 0 1 -16.08-16c0-30.951 0-96 0-96h-16l-6.82 102.3a39.106 39.106 0 0 0 11.367 30.252 39.1 39.1 0 0 1 11.453 27.648v14.5a155.883 155.883 0 0 1 -8 49.3h48a155.883 155.883 0 0 1 -8-49.3v-14.5a39.1 39.1 0 0 1 11.453-27.65 39.106 39.106 0 0 0 11.367-30.25l-6.82-102.3z" fill="#d7dadc"/><path d="m40 248h48v63.667q0 80.3-6.671 160.388a17.389 17.389 0 0 1 -17.329 15.945 17.389 17.389 0 0 1 -17.329-15.945q-6.671-80.02-6.671-160.388z" fill="#875632"/><path d="m432 248h48v217.494a22.506 22.506 0 0 1 -22.506 22.506 22.506 22.506 0 0 1 -22.332-25.3l.44-3.517a218.516 218.516 0 0 0 -2.556-69.957 218.5 218.5 0 0 1 .96-90.255l.506-2.278a91.333 91.333 0 0 0 -2.512-48.693z" fill="#875632"/><g fill="#d7dadc"><rect height="16" rx="8" width="16" x="56" y="288"/><rect height="16" rx="8" width="16" x="56" y="336"/><rect height="16" rx="8" width="16" x="56" y="384"/><rect height="16" rx="8" width="16" x="56" y="432"/><rect height="16" rx="8" width="16" x="448" y="288"/><rect height="16" rx="8" width="16" x="448" y="336"/><rect height="16" rx="8" width="16" x="448" y="384"/><rect height="16" rx="8" width="16" x="448" y="432"/><path d="m432 248v-127.432a136.567 136.567 0 0 1 40-96.568l14.64 124.441a198.493 198.493 0 0 1 1.36 23.2 198.587 198.587 0 0 1 -1.533 24.627l-6.467 51.732z"/></g><path d="m112 208h16v16h-16z" fill="#0598e2"/><path d="m144 208h32v16h-32z" fill="#0598e2"/><path d="m112 240h32v16h-32z" fill="#0598e2"/><path d="m160 240h16v16h-16z" fill="#0598e2"/><path d="m112 272h16v16h-16z" fill="#0598e2"/><path d="m144 272h32v16h-32z" fill="#0598e2"/><path d="m216 176h96v56h-96z" fill="#e50000"/><path d="m200 208h128v80h-128z" fill="#ffc933"/><path d="m328 208h40l16 32 16 8v40h-72z" fill="#5eae35"/><circle cx="368" cy="288" fill="#666" r="16"/><circle cx="248" cy="288" fill="#666" r="16"/><path d="m384 240h-56v-32h40z" fill="#95d7fe"/><path d="m232 208h64v32h-64z" fill="#b3b3b3"/></g></svg>