<svg xmlns="http://www.w3.org/2000/svg" viewBox="0 0 400 300"><g id="_269_order_confirmed_flatline" data-name="#269_order_confirmed_flatline"><path d="M140.7,149.45l6.53,30,24.55-27.9,10,8.83S147,212.1,133.12,208.72s-10.1-23-13.05-44.09S140.7,149.45,140.7,149.45Z" fill="#fff"/><path d="M134.46,209.38a6.28,6.28,0,0,1-1.46-.17c-10.57-2.58-11.22-14-12-28.46-.29-5.17-.6-10.51-1.37-16.05-.83-5.93.32-10.35,3.43-13.14,6.09-5.46,17.34-2.72,17.81-2.6a.53.53,0,0,1,.37.38l6.32,29,23.89-27.16a.51.51,0,0,1,.35-.17.52.52,0,0,1,.36.12l10,8.84a.49.49,0,0,1,.08.65C180.78,162.71,149.23,209.37,134.46,209.38Zm-.58-60.19c-3.43,0-7.45.64-10.2,3.12s-3.89,6.68-3.11,12.25,1.08,10.94,1.38,16.13c.8,14.05,1.44,25.14,11.28,27.55,5.47,1.32,15.5-6.53,29-22.74,9.32-11.19,17.36-22.86,18.85-25l-9.27-8.22-24.21,27.53a.5.5,0,0,1-.5.16.51.51,0,0,1-.37-.38l-6.46-29.68A31.25,31.25,0,0,0,133.88,149.19Z" fill="#231f20"/><path d="M60.61,238c-2,13.52-1.69,17.24-1.69,17.24l82.92-1.66-10.91-47.39L67.35,213A121,121,0,0,0,60.61,238Z" fill="#231f20"/><path d="M58.92,255.74a.49.49,0,0,1-.5-.45c0-.16-.32-3.94,1.69-17.36h0a122.34,122.34,0,0,1,6.78-25.12.51.51,0,0,1,.41-.31l63.57-6.81a.49.49,0,0,1,.54.38l10.92,47.4a.49.49,0,0,1-.1.42.47.47,0,0,1-.38.19l-82.92,1.66Zm2.18-17.66c-1.61,10.74-1.72,15.3-1.7,16.65l81.81-1.63-10.67-46.37-62.83,6.73a122.39,122.39,0,0,0-6.61,24.62Z" fill="#231f20"/><path d="M59.74,232.93l77.75-8.75c-7.24-46.21-10.93-21.78-2.18-65l9.22-2.5c-4.28-22.33-14.8-32.13-14.8-32.13-10.27-18.49-35.31-7.67-35.31-7.67S65.7,119.18,58.29,144c-4.91,16.42,3.52,39.32,4.57,59.31C63.15,208.9,61.22,208.67,59.74,232.93Z" fill="#cf002d"/><path d="M115.84,128.73c-2.89-.44-5.67-.93-8.66-.13-4.44,1.21-8.35,3.78-12.92,4.85-4.88,1.13-10.2,1.17-15.19,1.4-1.46.07.12,1.92-1.14,1.17-4.43-2.64-4.78-8.65-5.19-13.16a115.34,115.34,0,0,1,1-31.27c1.68-9,3.42-17.53,12.15-22.13,6.36-3.35,15.3-5.35,22.27-2.87s12.79,8.85,15.22,15.9c2.69,7.8,3.57,15.71,8.09,22.85,2,3.15,4.47,6.22,5,9.91.58,4.45-2.06,8.93-5.85,11.33s-8.52,3-13,2.4C117,128.91,116.42,128.82,115.84,128.73Z" fill="#fff"/><path d="M78.35,136.7a1.49,1.49,0,0,1-.68-.25c-4.47-2.66-5-8.39-5.38-13l0-.55c-1.06-11.83-.73-22.1,1-31.41,1.62-8.69,3.3-17.68,12.41-22.48,5.73-3,15.11-5.59,22.67-2.9,7,2.49,12.93,8.7,15.52,16.21.88,2.54,1.57,5.12,2.24,7.62,1.44,5.33,2.79,10.36,5.8,15.12.36.58.74,1.15,1.12,1.72,1.72,2.59,3.5,5.27,3.9,8.4.58,4.4-1.86,9.15-6.07,11.81-4.5,2.85-9.72,2.92-13.3,2.48l-1.79-.26-.43-.06c-2.71-.42-5.28-.81-8-.07a42.37,42.37,0,0,0-6,2.29,40,40,0,0,1-7,2.55,69.54,69.54,0,0,1-12.91,1.32l-2.38.1a.41.41,0,0,0-.19,0,1.17,1.17,0,0,0,0,.35.8.8,0,0,1-.24.86A.61.61,0,0,1,78.35,136.7ZM101.28,66a34.24,34.24,0,0,0-15.15,3.92c-8.68,4.57-10.31,13.31-11.89,21.77-1.72,9.22-2,19.4-1,31.14l.05.55c.38,4.27.84,9.56,4.61,12a1.06,1.06,0,0,1,.23-.66,1.19,1.19,0,0,1,.92-.4l2.38-.1A68.75,68.75,0,0,0,94.15,133a38.73,38.73,0,0,0,6.78-2.5,44.47,44.47,0,0,1,6.12-2.34c2.94-.79,5.61-.38,8.43,0l.43.07h0c.58.08,1.16.17,1.75.24,3.43.43,8.4.37,12.65-2.33,3.88-2.45,6.14-6.81,5.61-10.83-.38-2.9-2.09-5.48-3.74-8-.38-.58-.77-1.16-1.14-1.74-3.09-4.89-4.52-10.24-5.91-15.4-.67-2.48-1.36-5-2.22-7.56-2.5-7.23-8.21-13.2-14.92-15.59A20.17,20.17,0,0,0,101.28,66Z" fill="#231f20"/><path d="M119.21,87.18s5.16,12,3.62,21.4A13.67,13.67,0,0,1,113,119.87l1,16.47s.61,8.42-9.8,7.77a17.76,17.76,0,0,1-14.51-9.33l-3.09-30.21s11.27-7.47,9.57-18.28C96.24,86.29,110.57,92.14,119.21,87.18Z" fill="#fff"/><path d="M105.39,144.64l-1.15,0A18.42,18.42,0,0,1,89.31,135a.55.55,0,0,1,0-.17l-3.09-30.21a.53.53,0,0,1,.23-.47c.1-.07,11-7.42,9.34-17.78a.51.51,0,0,1,.69-.54c.14,0,14.2,5.69,22.53.91a.53.53,0,0,1,.41,0,.55.55,0,0,1,.3.28c.21.49,5.2,12.21,3.65,21.68a14.27,14.27,0,0,1-9.77,11.58l1,16.07a8.21,8.21,0,0,1-2.19,5.9C110.78,143.83,108.43,144.64,105.39,144.64Zm-15.14-10a17.39,17.39,0,0,0,14.06,9c3.29.21,5.76-.5,7.35-2.09a7.35,7.35,0,0,0,1.91-5.15l-1-16.47a.51.51,0,0,1,.39-.52,13,13,0,0,0,9.43-10.88c1.32-8.1-2.44-18.25-3.38-20.62-7.69,4-19,.31-22.12-.82,1,9.64-8,16.57-9.64,17.75Z" fill="#231f20"/><path d="M113.64,109.49a15.06,15.06,0,0,1-2.51-.23.5.5,0,0,1-.39-.59.49.49,0,0,1,.59-.39s3.33.64,4.9-.3c.24-1.3-2.91-5.62-5.21-8.29a.5.5,0,0,1,.76-.66c1,1.14,5.82,6.91,5.48,9a1.07,1.07,0,0,1-.51.79A6.22,6.22,0,0,1,113.64,109.49Z" fill="#231f20"/><path d="M110,114.87a10.15,10.15,0,0,1-1.81-.16,12,12,0,0,1-7.21-4.24.5.5,0,0,1,.21-.67.51.51,0,0,1,.68.2,11.16,11.16,0,0,0,6.55,3.74c3.38.55,6.74-.69,10-3.69a.5.5,0,1,1,.68.73C116.14,113.5,113.1,114.87,110,114.87Z" fill="#231f20"/><path d="M113,119.87s-8.72,1.67-13.86.7c0,0,6.34,12.62,14.7,12Z" fill="#231f20"/><path d="M113.27,133.11c-8.27,0-14.3-11.8-14.56-12.32a.51.51,0,0,1,.05-.52.48.48,0,0,1,.49-.19c5,.94,13.59-.68,13.68-.7a.49.49,0,0,1,.4.1.5.5,0,0,1,.19.36l.84,12.71a.5.5,0,0,1-.46.54Zm-13.18-11.9c1.56,2.73,6.77,10.9,13.19,10.9h0l-.77-11.65C110.68,120.79,104.54,121.75,100.09,121.21Z" fill="#231f20"/><polygon points="163.47 120.45 185.14 119.39 174.28 165.33 150.98 167.62 163.47 120.45" fill="#231f20"/><path d="M151,168.12a.49.49,0,0,1-.38-.17.52.52,0,0,1-.11-.46L163,120.33a.49.49,0,0,1,.46-.37l21.66-1.07a.47.47,0,0,1,.41.18.49.49,0,0,1,.1.44l-10.85,45.94a.5.5,0,0,1-.44.38L151,168.12Zm12.88-47.18-12.22,46.11,22.24-2.18,10.62-44.95Z" fill="#231f20"/><path d="M135.31,159.69a.5.5,0,0,1-.5-.47,63.8,63.8,0,0,0-4.34-19.3.5.5,0,0,1,.25-.66.49.49,0,0,1,.66.25,64.72,64.72,0,0,1,4.43,19.64.51.51,0,0,1-.47.54Z" fill="#231f20"/><path d="M101.31,98.9a.39.39,0,0,1-.15,0,.5.5,0,0,1-.33-.62,5.15,5.15,0,0,1,2.5-3,4.34,4.34,0,0,1,3.72.27.5.5,0,0,1-.43.9,3.42,3.42,0,0,0-2.89-.25,4.1,4.1,0,0,0-1.94,2.32A.5.5,0,0,1,101.31,98.9Z" fill="#231f20"/><path d="M115.16,95.94h-.09a.51.51,0,0,1-.4-.59,2.71,2.71,0,0,1,1.46-1.92c.88-.35,2-.07,3.19.82a.5.5,0,0,1-.58.81c-.93-.67-1.7-.91-2.23-.71a1.74,1.74,0,0,0-.85,1.19A.51.51,0,0,1,115.16,95.94Z" fill="#231f20"/><path d="M72.17,107.39s1.22,3.66-2.65,14.26-3.71,18.72,6,20.18,15.39.29,16.67-8S86,116.44,86,116.44" fill="#fff"/><path d="M81.58,142.86a40.85,40.85,0,0,1-6.13-.54c-3.56-.53-6.08-2-7.47-4.34-2.06-3.48-1.71-8.88,1.07-16.51,3.73-10.21,2.66-13.89,2.65-13.92a.5.5,0,0,1,1-.32c0,.16,1.23,4-2.66,14.59-2.67,7.33-3,12.45-1.15,15.65,1.25,2.11,3.46,3.37,6.76,3.86,9.23,1.39,14.83.6,16.1-7.55,1.23-7.93-6-16.94-6.08-17a.49.49,0,0,1,.07-.7.5.5,0,0,1,.7.07c.31.38,7.6,9.44,6.29,17.82C91.63,140.73,87.59,142.86,81.58,142.86Z" fill="#231f20"/><path d="M341.05,44.76H200.22A6.28,6.28,0,0,0,193.93,51V93.89l-16,19.6,16-5.68V228.38a6.29,6.29,0,0,0,6.29,6.29H341.05a6.29,6.29,0,0,0,6.29-6.29V51A6.29,6.29,0,0,0,341.05,44.76Z" fill="#fff"/><path d="M341.05,235.17H200.22a6.8,6.8,0,0,1-6.79-6.79V108.51L178.1,114a.5.5,0,0,1-.58-.18.5.5,0,0,1,0-.6l15.89-19.47V51a6.79,6.79,0,0,1,6.79-6.78H341.05A6.79,6.79,0,0,1,347.84,51V228.38A6.8,6.8,0,0,1,341.05,235.17ZM193.93,107.31a.52.52,0,0,1,.29.09.49.49,0,0,1,.21.41V228.38a5.8,5.8,0,0,0,5.79,5.79H341.05a5.8,5.8,0,0,0,5.79-5.79V51a5.79,5.79,0,0,0-5.79-5.78H200.22A5.79,5.79,0,0,0,194.43,51V93.89a.51.51,0,0,1-.11.31l-14.87,18.22,14.31-5.08A.51.51,0,0,1,193.93,107.31Z" fill="#231f20"/><path d="M176.66,167.62c8-11.35,8-11.35,7.55-15.26-.35-3-1.85-5.63-3.42-8.11-2-3.16-6.37-8-8-1.55-.81,3.1-2.06,6.91-1.2,10.09.8,2.94,3,5.35,4.21,8.11" fill="#fff"/><path d="M176.66,168.12a.52.52,0,0,1-.29-.09.51.51,0,0,1-.12-.7c7.9-11.19,7.9-11.19,7.46-14.91-.34-3-1.91-5.64-3.35-7.9s-3.72-4.69-5.2-4.47c-1,.16-1.62,1.6-1.93,2.78l-.29,1.08c-.76,2.84-1.64,6.06-.9,8.75a18.45,18.45,0,0,0,2.34,4.73,28,28,0,0,1,1.84,3.31.5.5,0,1,1-.92.4,27.14,27.14,0,0,0-1.78-3.19,19.3,19.3,0,0,1-2.45-5c-.8-2.95.11-6.31.91-9.27l.29-1.07c.55-2.14,1.47-3.32,2.73-3.52,2.61-.41,5.41,3.66,6.21,4.92,1.5,2.36,3.12,5.14,3.5,8.32.48,4.1.48,4.1-7.64,15.61A.49.49,0,0,1,176.66,168.12Z" fill="#231f20"/><path d="M78.44,183s35.9,33.18,46.16,29.39,22.21-19.61,29.25-30.64,16.16-26.27,17.5-33.06-.76-11.86-3.3-10.59S156,148.68,156,148.68s3.21-9.1,1.71-9.14-5.92,4-7.39,17l-30.5,31-25-24.38" fill="#fff"/><path d="M122.78,213.17c-12.27,0-43.29-28.53-44.68-29.81a.5.5,0,0,1,0-.71.51.51,0,0,1,.71,0c.09.09,9.08,8.38,19.2,16.09,13.28,10.12,22.42,14.69,26.45,13.2,11.63-4.29,25.14-24.38,29-30.44,7.23-11.33,16.12-26.24,17.43-32.88,1-4.85.08-8.86-1.33-9.93a1.09,1.09,0,0,0-1.25-.13c-2.45,1.22-11.84,10.42-11.94,10.51a.48.48,0,0,1-.61.06.49.49,0,0,1-.21-.58c1.23-3.49,2.31-7.61,2.06-8.47-1,.21-5.29,3.45-6.77,16.49a.6.6,0,0,1-.14.3l-30.5,31a.49.49,0,0,1-.7,0l-25-24.38a.5.5,0,1,1,.7-.72l24.69,24,30-30.53c1.51-12.93,6-17.22,7.85-17.22h0a.76.76,0,0,1,.65.36c.67,1-.35,4.74-1.24,7.49,2.8-2.69,8.72-8.26,10.71-9.25a2.11,2.11,0,0,1,2.31.22c1.94,1.49,2.66,6.08,1.7,10.92-1.34,6.8-10.29,21.82-17.57,33.23-5,7.85-17.9,26.56-29.5,30.84A5.69,5.69,0,0,1,122.78,213.17Z" fill="#231f20"/><rect x="230.17" y="187.49" width="83.75" height="21.84" rx="8.83" fill="#cf002d"/><path d="M235.78,152.65l-3.47-5.23h2l2.32,3.89,2.34-3.89h1.91l-3.47,5.23v4h-1.64Z"/><path d="M240,153.5a3.25,3.25,0,0,1,.27-1.35,3.06,3.06,0,0,1,1.8-1.7,3.81,3.81,0,0,1,2.66,0,3.11,3.11,0,0,1,1.08.66,3.2,3.2,0,0,1,.73,1,3.42,3.42,0,0,1,.26,1.35,3.49,3.49,0,0,1-.26,1.35,3.14,3.14,0,0,1-.73,1.05,3.33,3.33,0,0,1-1.08.69,3.81,3.81,0,0,1-2.66,0,3.56,3.56,0,0,1-1.08-.69,3.27,3.27,0,0,1-.72-1.05A3.32,3.32,0,0,1,240,153.5Zm1.59,0a2.69,2.69,0,0,0,.11.73,2.34,2.34,0,0,0,.33.65,1.82,1.82,0,0,0,.56.47,1.73,1.73,0,0,0,2.18-.47,1.9,1.9,0,0,0,.33-.65,2.35,2.35,0,0,0,.11-.73,2.27,2.27,0,0,0-.11-.73,2,2,0,0,0-.33-.64,1.58,1.58,0,0,0-.56-.46,1.91,1.91,0,0,0-1.62,0,1.67,1.67,0,0,0-.56.46,2.43,2.43,0,0,0-.33.64A2.58,2.58,0,0,0,241.59,153.5Z"/><path d="M254,156.65h-1.48v-1h0a2.07,2.07,0,0,1-.72.83,2.16,2.16,0,0,1-1.22.35,2.4,2.4,0,0,1-1-.21,2,2,0,0,1-.72-.57,2.38,2.38,0,0,1-.41-.81,3.6,3.6,0,0,1-.13-.93V150.4h1.57v3.46a4,4,0,0,0,0,.58,1.37,1.37,0,0,0,.17.54,1,1,0,0,0,.35.39,1,1,0,0,0,.61.16,1.32,1.32,0,0,0,.64-.15,1.44,1.44,0,0,0,.46-.38,1.71,1.71,0,0,0,.27-.54,2.27,2.27,0,0,0,.09-.62V150.4H254Z"/><path d="M255.9,150.4h1.5v1h0a2.37,2.37,0,0,1,.73-.89,1.89,1.89,0,0,1,1.1-.34h.19a1.08,1.08,0,0,1,.19,0v1.44l-.27-.06h-.22a1.68,1.68,0,0,0-.86.2,1.51,1.51,0,0,0-.5.47,1.47,1.47,0,0,0-.25.56,1.83,1.83,0,0,0-.07.45v3.35H255.9Z"/><path d="M263.54,152a5.13,5.13,0,0,1,.37-2,4.36,4.36,0,0,1,1-1.52,4.76,4.76,0,0,1,1.56-1,5.47,5.47,0,0,1,2-.34,5.6,5.6,0,0,1,2,.34,4.7,4.7,0,0,1,1.57,1,4.38,4.38,0,0,1,1,1.52,5.54,5.54,0,0,1,0,4,4.52,4.52,0,0,1-1,1.53,4.66,4.66,0,0,1-1.57,1,5.39,5.39,0,0,1-2,.36,5.27,5.27,0,0,1-2-.36,4.72,4.72,0,0,1-1.56-1,4.49,4.49,0,0,1-1-1.53A5.1,5.1,0,0,1,263.54,152Zm1.78,0a3.92,3.92,0,0,0,.23,1.36,3,3,0,0,0,1.65,1.79,3.45,3.45,0,0,0,2.58,0,3.13,3.13,0,0,0,1-.71,3.09,3.09,0,0,0,.65-1.08,3.92,3.92,0,0,0,.23-1.36,3.83,3.83,0,0,0-.23-1.33,3.24,3.24,0,0,0-.65-1.07,2.89,2.89,0,0,0-1-.71,3.08,3.08,0,0,0-1.3-.26,3.05,3.05,0,0,0-1.3.26,3,3,0,0,0-1,.71,3.39,3.39,0,0,0-.64,1.07A3.83,3.83,0,0,0,265.32,152Z"/><path d="M275,150.4h1.5v1h0a2.28,2.28,0,0,1,.73-.89,1.86,1.86,0,0,1,1.09-.34h.2a.84.84,0,0,1,.18,0v1.44l-.27-.06h-.21a1.66,1.66,0,0,0-.86.2,1.45,1.45,0,0,0-.51.47,1.86,1.86,0,0,0-.25.56,2.32,2.32,0,0,0-.06.45v3.35H275Z"/><path d="M285.83,156.65h-1.48v-.94h0a2.11,2.11,0,0,1-.91.84,2.75,2.75,0,0,1-1.24.28,2.89,2.89,0,0,1-2.25-1,3.17,3.17,0,0,1-.61-1.06,3.88,3.88,0,0,1-.22-1.29,3.65,3.65,0,0,1,.23-1.29,2.94,2.94,0,0,1,.62-1,2.84,2.84,0,0,1,1-.7,2.9,2.9,0,0,1,1.22-.26,3,3,0,0,1,.77.1,3.62,3.62,0,0,1,.59.24,2.17,2.17,0,0,1,.44.32,2.86,2.86,0,0,1,.3.32h0V146.8h1.56Zm-5.15-3.15a2.69,2.69,0,0,0,.11.73,2.12,2.12,0,0,0,.34.65,1.72,1.72,0,0,0,.56.47,1.65,1.65,0,0,0,.79.18,1.59,1.59,0,0,0,.77-.18,1.74,1.74,0,0,0,.58-.46,2.14,2.14,0,0,0,.37-.64,2.28,2.28,0,0,0,.12-.73,2.37,2.37,0,0,0-.12-.73,2.2,2.2,0,0,0-.37-.65,1.91,1.91,0,0,0-.58-.47,1.59,1.59,0,0,0-.77-.18,1.65,1.65,0,0,0-.79.18,1.58,1.58,0,0,0-.56.46,2.19,2.19,0,0,0-.34.64A2.58,2.58,0,0,0,280.68,153.5Z"/><path d="M293.7,153.6v.21a1.48,1.48,0,0,1,0,.21h-4.76a1.6,1.6,0,0,0,.18.62,1.43,1.43,0,0,0,.4.48,2,2,0,0,0,.56.32,1.78,1.78,0,0,0,.65.12,2,2,0,0,0,1-.22,1.79,1.79,0,0,0,.66-.59l1.05.83a3.13,3.13,0,0,1-2.69,1.25,3.88,3.88,0,0,1-1.34-.22,3.25,3.25,0,0,1-1.06-.65,3,3,0,0,1-.71-1,3.91,3.91,0,0,1,0-2.75,3.26,3.26,0,0,1,.7-1.06,3.2,3.2,0,0,1,1.05-.67,3.47,3.47,0,0,1,2.51,0,2.61,2.61,0,0,1,1,.64,2.89,2.89,0,0,1,.63,1.05A4.18,4.18,0,0,1,293.7,153.6Zm-1.56-.7a1.79,1.79,0,0,0-.09-.57,1.22,1.22,0,0,0-.26-.49,1.25,1.25,0,0,0-.47-.33,1.6,1.6,0,0,0-.65-.12,1.79,1.79,0,0,0-1.2.42,1.59,1.59,0,0,0-.54,1.09Z"/><path d="M295.21,150.4h1.5v1h0a2.28,2.28,0,0,1,.73-.89,1.86,1.86,0,0,1,1.09-.34h.2a.84.84,0,0,1,.18,0v1.44l-.27-.06h-.21a1.66,1.66,0,0,0-.86.2,1.45,1.45,0,0,0-.51.47,1.86,1.86,0,0,0-.25.56,2.32,2.32,0,0,0-.06.45v3.35h-1.57Z"/><path d="M303,148.27a.9.9,0,0,1,.28-.66,1,1,0,0,1,.71-.28,1,1,0,0,1,.72.27.86.86,0,0,1,.3.67.85.85,0,0,1-.3.67,1,1,0,0,1-.72.27,1,1,0,0,1-.71-.28A.9.9,0,0,1,303,148.27Zm.22,2.13h1.57v6.25h-1.57Z"/><path d="M310.13,152.06a1.69,1.69,0,0,0-.57-.47,1.55,1.55,0,0,0-.79-.2,1.52,1.52,0,0,0-.69.15.55.55,0,0,0-.32.52.53.53,0,0,0,.35.52,7,7,0,0,0,1,.31,6.93,6.93,0,0,1,.71.2,2.69,2.69,0,0,1,.65.35,1.74,1.74,0,0,1,.48.53,1.58,1.58,0,0,1,.18.78,1.93,1.93,0,0,1-.22,1,1.76,1.76,0,0,1-.57.64,2.3,2.3,0,0,1-.83.36,4.2,4.2,0,0,1-2.41-.15,3.11,3.11,0,0,1-1.15-.77l1-1a2.09,2.09,0,0,0,.68.56,1.93,1.93,0,0,0,.93.22,1.32,1.32,0,0,0,.34,0,.93.93,0,0,0,.33-.12.66.66,0,0,0,.24-.23.63.63,0,0,0,.09-.35.58.58,0,0,0-.36-.56,5.92,5.92,0,0,0-1.07-.34,5.45,5.45,0,0,1-.69-.2,2,2,0,0,1-.59-.33,1.58,1.58,0,0,1-.42-.5,1.65,1.65,0,0,1-.15-.74,1.81,1.81,0,0,1,.21-.9,1.78,1.78,0,0,1,.57-.62,2.59,2.59,0,0,1,.79-.36,3.52,3.52,0,0,1,.92-.12,3.76,3.76,0,0,1,1.32.24,2.12,2.12,0,0,1,1,.72Z"/><path d="M247.59,165.23a2.16,2.16,0,0,0-1-.73,3.18,3.18,0,0,0-1.15-.23,3.09,3.09,0,0,0-1.3.27,3,3,0,0,0-1,.71,3.24,3.24,0,0,0-.65,1.07,3.83,3.83,0,0,0-.23,1.33,4.34,4.34,0,0,0,.22,1.38,3.07,3.07,0,0,0,.64,1.08,2.73,2.73,0,0,0,1,.69,3.13,3.13,0,0,0,1.29.25,3,3,0,0,0,1.32-.29,2.61,2.61,0,0,0,.92-.78l1.32.93a4.24,4.24,0,0,1-1.5,1.19,4.78,4.78,0,0,1-2.07.42,5.54,5.54,0,0,1-2-.35,4.72,4.72,0,0,1-1.56-1,4.53,4.53,0,0,1-1-1.54,5,5,0,0,1-.37-2,5,5,0,0,1,.39-2,4.31,4.31,0,0,1,1.05-1.52,4.63,4.63,0,0,1,1.58-1,5.57,5.57,0,0,1,2-.34,6,6,0,0,1,.93.08,5.42,5.42,0,0,1,.92.26,4.78,4.78,0,0,1,.84.44,2.47,2.47,0,0,1,.66.63Z"/><path d="M249.4,169.14a3.26,3.26,0,0,1,1-2.39,3.1,3.1,0,0,1,1.09-.66,3.78,3.78,0,0,1,2.65,0,3.1,3.1,0,0,1,1.09.66,3.26,3.26,0,0,1,1,2.39,3.32,3.32,0,0,1-.27,1.35,3.13,3.13,0,0,1-1.81,1.73,3.64,3.64,0,0,1-2.65,0,3.24,3.24,0,0,1-2.08-3.08Zm1.59,0a2.69,2.69,0,0,0,.11.73,2.12,2.12,0,0,0,.34.65,1.73,1.73,0,0,0,.56.47,1.89,1.89,0,0,0,1.61,0,1.73,1.73,0,0,0,.56-.47,1.9,1.9,0,0,0,.33-.65,2.37,2.37,0,0,0,.12-.73,2.28,2.28,0,0,0-.12-.73,1.86,1.86,0,0,0-.33-.64,1.62,1.62,0,0,0-.56-.47,2,2,0,0,0-1.61,0,1.62,1.62,0,0,0-.56.47,2.07,2.07,0,0,0-.34.64A2.58,2.58,0,0,0,251,169.14Z"/><path d="M257.72,166h1.48v1h0a2,2,0,0,1,.72-.83,2.09,2.09,0,0,1,1.22-.36,2.26,2.26,0,0,1,1.05.22,2.12,2.12,0,0,1,.72.56,2.58,2.58,0,0,1,.41.81,3.74,3.74,0,0,1,.13.94v3.91h-1.57v-3.47q0-.27,0-.57a1.8,1.8,0,0,0-.17-.54,1.25,1.25,0,0,0-.36-.4,1.13,1.13,0,0,0-.61-.16,1.45,1.45,0,0,0-.65.15,1.41,1.41,0,0,0-.45.39,1.71,1.71,0,0,0-.27.54,2.16,2.16,0,0,0-.09.62v3.44h-1.56Z"/><path d="M265.55,167.29h-1.19V166h1.19v-.92a4.83,4.83,0,0,1,.12-1.08,2.49,2.49,0,0,1,.42-.9,2,2,0,0,1,.78-.62,2.84,2.84,0,0,1,1.21-.23l.43,0a2.29,2.29,0,0,1,.36.07l-.1,1.33a2.3,2.3,0,0,0-.28-.06,1.66,1.66,0,0,0-.32,0,1,1,0,0,0-.55.13,1,1,0,0,0-.32.34,1.66,1.66,0,0,0-.15.46,3.88,3.88,0,0,0,0,.48v1h1.45v1.26h-1.45v5h-1.56Zm3.93-3.38a.94.94,0,0,1,.28-.66,1,1,0,0,1,.71-.28,1,1,0,0,1,.73.27.92.92,0,0,1,0,1.34,1,1,0,0,1-.73.27,1,1,0,0,1-.71-.28A.94.94,0,0,1,269.48,163.91Zm.23,2.12h1.56v6.26h-1.56Z"/><path d="M273,166h1.5v1.05h0a2.37,2.37,0,0,1,.73-.89,1.82,1.82,0,0,1,1.1-.34h.19a.58.58,0,0,1,.19,0v1.43l-.27,0h-.22a1.69,1.69,0,0,0-.86.19,1.62,1.62,0,0,0-.5.47,1.54,1.54,0,0,0-.25.56,1.9,1.9,0,0,0-.07.46v3.35H273Z"/><path d="M285.24,165.85a2.26,2.26,0,0,1,1.05.22,2,2,0,0,1,.71.56,2.41,2.41,0,0,1,.42.81,3.74,3.74,0,0,1,.13.94v3.91H286v-3.47a3.82,3.82,0,0,0,0-.57,1.37,1.37,0,0,0-.17-.54,1,1,0,0,0-1-.56,1.28,1.28,0,0,0-.63.16,1.64,1.64,0,0,0-.43.4,1.76,1.76,0,0,0-.24.56,2.09,2.09,0,0,0-.08.61v3.41h-1.57v-3.78a1.59,1.59,0,0,0-.28-1,1,1,0,0,0-.88-.39,1.34,1.34,0,0,0-.61.15,1.31,1.31,0,0,0-.42.39,1.91,1.91,0,0,0-.25.54,2.15,2.15,0,0,0-.08.62v3.44h-1.57V166h1.49v1h0a2.11,2.11,0,0,1,.28-.45,2.53,2.53,0,0,1,.42-.37,1.71,1.71,0,0,1,.56-.27,2.4,2.4,0,0,1,1.9.23,2.07,2.07,0,0,1,.74.86,2.28,2.28,0,0,1,.83-.88A2.34,2.34,0,0,1,285.24,165.85Z"/><path d="M295.34,169.24v.21c0,.07,0,.14,0,.21h-4.76a1.48,1.48,0,0,0,.18.62,1.62,1.62,0,0,0,.39.48,2.2,2.2,0,0,0,.56.32,1.81,1.81,0,0,0,.65.11,2.07,2.07,0,0,0,1-.21,1.9,1.9,0,0,0,.67-.59l1,.83a3.14,3.14,0,0,1-2.68,1.25,3.68,3.68,0,0,1-1.35-.23,3.17,3.17,0,0,1-1.06-.64,3,3,0,0,1-.7-1,3.77,3.77,0,0,1,0-2.75,3,3,0,0,1,.7-1.06,3.08,3.08,0,0,1,1-.68,3.6,3.6,0,0,1,1.32-.24,3.16,3.16,0,0,1,1.2.22,2.5,2.5,0,0,1,1,.64,2.89,2.89,0,0,1,.63,1A4.38,4.38,0,0,1,295.34,169.24Zm-1.57-.7a1.89,1.89,0,0,0-.08-.58,1.42,1.42,0,0,0-.27-.48,1.21,1.21,0,0,0-.46-.33,1.69,1.69,0,0,0-.66-.13,1.77,1.77,0,0,0-1.19.43,1.5,1.5,0,0,0-.54,1.09Z"/><path d="M303.21,172.29h-1.49v-.94h0a2.09,2.09,0,0,1-.91.83,2.63,2.63,0,0,1-1.24.29,3,3,0,0,1-1.29-.27,2.83,2.83,0,0,1-1-.71,3.17,3.17,0,0,1-.61-1.06,3.64,3.64,0,0,1-.22-1.29,3.84,3.84,0,0,1,.22-1.29,3.27,3.27,0,0,1,.63-1,3,3,0,0,1,1-.69,3,3,0,0,1,1.23-.26,2.61,2.61,0,0,1,.77.1,2.43,2.43,0,0,1,.59.24,2.61,2.61,0,0,1,.44.31,2.89,2.89,0,0,1,.3.33h0v-4.39h1.56Zm-5.15-3.15a2.69,2.69,0,0,0,.11.73,2.34,2.34,0,0,0,.33.65,1.89,1.89,0,0,0,.57.47,1.65,1.65,0,0,0,.79.18,1.62,1.62,0,0,0,.77-.18,1.74,1.74,0,0,0,.58-.46,2.26,2.26,0,0,0,.49-1.37,2.08,2.08,0,0,0-.13-.73,2,2,0,0,0-.36-.65,1.91,1.91,0,0,0-.58-.47,1.62,1.62,0,0,0-.77-.18,1.64,1.64,0,0,0-1.36.64,2.28,2.28,0,0,0-.33.64A2.58,2.58,0,0,0,298.06,169.14Z"/><path d="M270.63,128.91A25.91,25.91,0,1,1,296.54,103,25.94,25.94,0,0,1,270.63,128.91Zm0-50.81A24.91,24.91,0,1,0,295.54,103,24.94,24.94,0,0,0,270.63,78.1Z" fill="#d1d3d4"/><path d="M330.07,60.23a.46.46,0,0,1-.35-.14.5.5,0,0,1,0-.71L336.14,53a.5.5,0,0,1,.7,0,.5.5,0,0,1,0,.71l-6.42,6.42A.46.46,0,0,1,330.07,60.23Z" fill="#d1d3d4"/><path d="M336.49,60.23a.46.46,0,0,1-.35-.14l-6.42-6.42a.5.5,0,0,1,0-.71.5.5,0,0,1,.7,0l6.42,6.42a.5.5,0,0,1,0,.71A.46.46,0,0,1,336.49,60.23Z" fill="#d1d3d4"/><path d="M288.83,96.47a6.06,6.06,0,0,1-.6.81l-21.32,21.29a1.2,1.2,0,0,1-2,0q-6-6.18-12-12.38a1.17,1.17,0,0,1,.07-1.92l3-2.71a1.15,1.15,0,0,1,1.8,0l7.09,7.22c.74.75,1.29.76,2,0l16.56-16.49a1.19,1.19,0,0,1,2,0c.94.94,1.88,1.88,2.8,2.83a6.7,6.7,0,0,1,.58.79Z" fill="#cf002d"/><path d="M103.39,105.64a7,7,0,1,1,6.83-8.35h0a7,7,0,0,1-5.42,8.21A7.49,7.49,0,0,1,103.39,105.64Zm0-12.91a5.4,5.4,0,0,0-1.19.12,6,6,0,1,0,7,4.64h0A6,6,0,0,0,103.4,92.73Z" fill="#231f20"/><path d="M118.14,102.62a7,7,0,0,1-5.8-10.79A7,7,0,0,1,125,94.27h0a7,7,0,0,1-5.42,8.21A7.47,7.47,0,0,1,118.14,102.62Zm0-12.91a6.11,6.11,0,0,0-1.2.12,6,6,0,1,0,7,4.64h0A6,6,0,0,0,118.15,89.71Z" fill="#231f20"/><path d="M109.61,97.3a.48.48,0,0,1-.26-.07.49.49,0,0,1-.17-.68,2,2,0,0,1,2.78-.62.5.5,0,0,1-.46.88c-1-.51-1.42.17-1.46.25A.5.5,0,0,1,109.61,97.3Z" fill="#231f20"/><line x1="96.82" y1="98.7" x2="84.81" y2="100.16" fill="#fff"/><path d="M84.81,100.66a.5.5,0,0,1-.06-1l12-1.47a.49.49,0,0,1,.55.44.5.5,0,0,1-.43.56l-12,1.46Z" fill="#231f20"/><path d="M85.7,104.52s-4.1-13.85,1.39-23.28c4.55-7.82,16.52-13.23,25.33-13.52A14.43,14.43,0,0,0,97,65.81c-9.14,4-14,8.51-15.81,16.71C78.61,94.38,85.7,104.52,85.7,104.52Z" fill="#231f20"/><path d="M85.7,105a.52.52,0,0,1-.41-.21c-.07-.11-7.19-10.46-4.58-22.39,1.74-8,6.26-12.78,16.1-17.07a15.09,15.09,0,0,1,16,2,.51.51,0,0,1,.12.54.48.48,0,0,1-.45.32C104,68.5,92.09,73.65,87.52,81.5c-5.32,9.13-1.38,22.74-1.34,22.88a.5.5,0,0,1-.26.59A.59.59,0,0,1,85.7,105Zm17.67-40.1a15.23,15.23,0,0,0-6.16,1.35C87.7,70.41,83.35,75,81.68,82.63s.89,14.85,2.77,18.66c-.88-4.75-1.72-13.55,2.21-20.3,4.5-7.73,15.84-12.94,24.42-13.69A13.73,13.73,0,0,0,103.37,64.92Z" fill="#231f20"/><path d="M92.24,102.08S86.42,91,81.15,98.54s3.59,14.94,8.63,13.94" fill="#fff"/><path d="M88.79,113.08c-2.89,0-6.33-2-8.26-5a8.34,8.34,0,0,1,.21-9.85c1.39-2,3-3,4.69-2.85,4,.25,7.12,6.18,7.26,6.43a.51.51,0,0,1-.22.68.5.5,0,0,1-.67-.21c0-.06-3-5.69-6.43-5.9-1.34-.09-2.63.73-3.81,2.42a7.43,7.43,0,0,0-.2,8.74c1.94,3,5.67,4.94,8.32,4.42a.51.51,0,0,1,.59.4.5.5,0,0,1-.4.58A5.49,5.49,0,0,1,88.79,113.08Z" fill="#231f20"/><path d="M92.34,161.4a.52.52,0,0,1-.37-.16c-.12-.14-12.39-13.44-20.81-16.66a.5.5,0,1,1,.35-.93C80.16,147,92.2,160,92.71,160.56a.51.51,0,0,1,0,.71A.5.5,0,0,1,92.34,161.4Z" fill="#231f20"/><path d="M241.15,88.4a.52.52,0,0,1-.29-.09l-11-7.6a.51.51,0,0,1-.12-.7.49.49,0,0,1,.69-.12l11,7.6a.49.49,0,0,1,.13.69A.5.5,0,0,1,241.15,88.4Z" fill="#d1d3d4"/><path d="M230.17,126.21a.48.48,0,0,1-.41-.21.51.51,0,0,1,.12-.7l11-7.6a.5.5,0,0,1,.7.13.49.49,0,0,1-.13.69l-11,7.6A.47.47,0,0,1,230.17,126.21Z" fill="#d1d3d4"/><path d="M240,103.5h-9.81a.5.5,0,0,1-.5-.5.5.5,0,0,1,.5-.5H240a.5.5,0,0,1,.5.5A.5.5,0,0,1,240,103.5Z" fill="#d1d3d4"/><path d="M301.12,88.4a.5.5,0,0,1-.41-.22.49.49,0,0,1,.13-.69l11-7.6a.49.49,0,0,1,.69.12.5.5,0,0,1-.12.7l-11,7.6A.52.52,0,0,1,301.12,88.4Z" fill="#d1d3d4"/><path d="M312.1,126.21a.49.49,0,0,1-.28-.09l-11-7.6a.49.49,0,0,1-.13-.69.5.5,0,0,1,.7-.13l11,7.6a.5.5,0,0,1,.12.7A.48.48,0,0,1,312.1,126.21Z" fill="#d1d3d4"/><path d="M312.1,103.5h-9.81a.5.5,0,0,1-.5-.5.5.5,0,0,1,.5-.5h9.81a.5.5,0,0,1,.5.5A.5.5,0,0,1,312.1,103.5Z" fill="#d1d3d4"/></g></svg>